G04*
G04 #@! TF.GenerationSoftware,Altium Limited,Altium Designer,23.5.1 (21)*
G04*
G04 Layer_Color=128*
%FSLAX44Y44*%
%MOMM*%
G71*
G04*
G04 #@! TF.SameCoordinates,1C69412E-B372-4F46-9B7E-F97621244732*
G04*
G04*
G04 #@! TF.FilePolarity,Positive*
G04*
G01*
G75*
%ADD29R,1.2500X1.0000*%
%ADD30R,1.0000X1.2500*%
%ADD31R,2.5000X2.0000*%
%ADD32R,0.2500X1.1000*%
%ADD33R,1.1000X0.2500*%
%ADD34R,0.2500X0.5500*%
%ADD35R,0.5500X0.2500*%
%ADD36R,2.0000X2.0000*%
%ADD38R,3.2000X1.6000*%
%ADD39R,2.0000X1.2500*%
%ADD40R,1.8000X1.0000*%
%ADD41R,1.8000X3.3000*%
%ADD42R,0.6000X0.8000*%
%ADD43R,2.0000X2.5000*%
%ADD44R,1.6000X1.4000*%
%ADD45R,2.5000X2.5000*%
D29*
X360680Y294640D02*
D03*
Y274320D02*
D03*
X243840Y154940D02*
D03*
Y175260D02*
D03*
X444500Y231140D02*
D03*
Y210820D02*
D03*
X144780Y439420D02*
D03*
Y419100D02*
D03*
X152400Y393700D02*
D03*
Y373380D02*
D03*
X215900Y439420D02*
D03*
Y419100D02*
D03*
X284480Y439420D02*
D03*
Y419100D02*
D03*
X251460Y391160D02*
D03*
Y370840D02*
D03*
X233680Y391160D02*
D03*
Y370840D02*
D03*
X198120Y269240D02*
D03*
Y289560D02*
D03*
X513080Y210820D02*
D03*
Y231140D02*
D03*
X444500Y175260D02*
D03*
Y195580D02*
D03*
X495300Y175260D02*
D03*
Y195580D02*
D03*
X227350Y355600D02*
D03*
Y335280D02*
D03*
X215900Y269240D02*
D03*
Y289560D02*
D03*
X403860Y391160D02*
D03*
Y370840D02*
D03*
Y426720D02*
D03*
Y406400D02*
D03*
X58420Y287020D02*
D03*
Y266700D02*
D03*
X495300Y210820D02*
D03*
Y231140D02*
D03*
X464820Y210820D02*
D03*
Y231140D02*
D03*
D30*
X261620Y175260D02*
D03*
X281940D02*
D03*
X154940Y193040D02*
D03*
X134620D02*
D03*
X154940Y175260D02*
D03*
X134620D02*
D03*
X53340Y195580D02*
D03*
X33020D02*
D03*
Y213360D02*
D03*
X53340D02*
D03*
X96520D02*
D03*
X76200D02*
D03*
Y195580D02*
D03*
X96520D02*
D03*
X353060Y203200D02*
D03*
X373380D02*
D03*
X408940Y220980D02*
D03*
X388620D02*
D03*
X408940Y203200D02*
D03*
X388620D02*
D03*
X373380Y220980D02*
D03*
X353060D02*
D03*
X284480Y236220D02*
D03*
X304800D02*
D03*
X345440Y381000D02*
D03*
X325120D02*
D03*
X33020Y231140D02*
D03*
X53340D02*
D03*
X96520D02*
D03*
X76200D02*
D03*
X154940Y210820D02*
D03*
X134620D02*
D03*
D31*
X322580Y149860D02*
D03*
X271780D02*
D03*
X322580Y96520D02*
D03*
X271780D02*
D03*
D32*
X324200Y362140D02*
D03*
X319200D02*
D03*
X314200D02*
D03*
X309200D02*
D03*
X304200D02*
D03*
X299200D02*
D03*
X294200D02*
D03*
X289200D02*
D03*
X284200D02*
D03*
X279200D02*
D03*
X274200D02*
D03*
X269200D02*
D03*
X269200Y272140D02*
D03*
X274200D02*
D03*
X279200D02*
D03*
X284200D02*
D03*
X289200D02*
D03*
X294200D02*
D03*
X299200D02*
D03*
X304200D02*
D03*
X309200D02*
D03*
X314200D02*
D03*
X319200D02*
D03*
X324200D02*
D03*
D33*
X251700Y289640D02*
D03*
Y294640D02*
D03*
Y299640D02*
D03*
Y304640D02*
D03*
Y309640D02*
D03*
Y314640D02*
D03*
Y319640D02*
D03*
Y324640D02*
D03*
Y329640D02*
D03*
Y334640D02*
D03*
Y339640D02*
D03*
Y344640D02*
D03*
X341700D02*
D03*
Y339640D02*
D03*
Y334640D02*
D03*
Y329640D02*
D03*
Y324640D02*
D03*
Y319640D02*
D03*
Y314640D02*
D03*
Y309640D02*
D03*
Y304640D02*
D03*
Y299640D02*
D03*
Y294640D02*
D03*
Y289640D02*
D03*
D34*
X324200Y283640D02*
D03*
X319200D02*
D03*
X314200D02*
D03*
X309200D02*
D03*
X304200D02*
D03*
X299200D02*
D03*
X294200D02*
D03*
X289200D02*
D03*
X284200D02*
D03*
X279200D02*
D03*
X274200D02*
D03*
X269200D02*
D03*
Y350640D02*
D03*
X274200D02*
D03*
X279200D02*
D03*
X284200D02*
D03*
X289200D02*
D03*
X294200D02*
D03*
X299200D02*
D03*
X304200D02*
D03*
X309200D02*
D03*
X314200D02*
D03*
X319200D02*
D03*
X324200D02*
D03*
D35*
X263200Y289640D02*
D03*
Y294640D02*
D03*
Y299640D02*
D03*
Y304640D02*
D03*
Y309640D02*
D03*
Y314640D02*
D03*
Y319640D02*
D03*
Y324640D02*
D03*
Y329640D02*
D03*
Y334640D02*
D03*
Y339640D02*
D03*
Y344640D02*
D03*
X330200D02*
D03*
Y339640D02*
D03*
Y334640D02*
D03*
Y329640D02*
D03*
Y324640D02*
D03*
Y319640D02*
D03*
Y314640D02*
D03*
Y309640D02*
D03*
Y304640D02*
D03*
Y299640D02*
D03*
Y294640D02*
D03*
Y289640D02*
D03*
D36*
X309200Y304640D02*
D03*
X284200D02*
D03*
Y329640D02*
D03*
X309200D02*
D03*
D38*
X43180Y111760D02*
D03*
Y175260D02*
D03*
X86360Y111760D02*
D03*
Y175260D02*
D03*
X182880D02*
D03*
Y111760D02*
D03*
D39*
X83820Y308610D02*
D03*
Y266700D02*
D03*
D40*
X86360Y403860D02*
D03*
Y381000D02*
D03*
Y358140D02*
D03*
D41*
X16510Y381000D02*
D03*
D42*
X355600Y187960D02*
D03*
X364490Y162560D02*
D03*
X373380Y187960D02*
D03*
X406400D02*
D03*
X397510Y162560D02*
D03*
X388620Y187960D02*
D03*
D43*
X218440Y142240D02*
D03*
Y193040D02*
D03*
D44*
X119380Y379730D02*
D03*
Y347980D02*
D03*
D45*
X269240Y205740D02*
D03*
X320040D02*
D03*
M02*
