G04*
G04 #@! TF.GenerationSoftware,Altium Limited,Altium Designer,23.5.1 (21)*
G04*
G04 Layer_Color=32896*
%FSLAX44Y44*%
%MOMM*%
G71*
G04*
G04 #@! TF.SameCoordinates,1C69412E-B372-4F46-9B7E-F97621244732*
G04*
G04*
G04 #@! TF.FilePolarity,Positive*
G04*
G01*
G75*
%ADD10C,0.2000*%
%ADD63C,0.1500*%
D10*
X339700Y277140D02*
G03*
X339700Y277140I-3000J0D01*
G01*
X337700D02*
G03*
X337700Y277140I-1000J0D01*
G01*
X338700D02*
G03*
X338700Y277140I-2000J0D01*
G01*
X74930Y280670D02*
X92710D01*
X74930Y284480D02*
X92710D01*
X74930Y281940D02*
X92710D01*
X101600Y121920D02*
Y165100D01*
X71120Y121920D02*
Y165100D01*
X85090Y200660D02*
X87630D01*
X85090Y190500D02*
X87630D01*
X41910D02*
X44450D01*
X41910Y200660D02*
X44450D01*
X58420Y121920D02*
Y165100D01*
X27940Y121920D02*
Y165100D01*
X248920Y163830D02*
Y166370D01*
X238760Y163830D02*
Y166370D01*
X449580Y219710D02*
Y222250D01*
X439420Y219710D02*
Y222250D01*
X269240Y186690D02*
Y187960D01*
X143510Y198120D02*
X146050D01*
X143510Y187960D02*
X146050D01*
X143510Y180340D02*
X146050D01*
X143510Y170180D02*
X146050D01*
X85090Y226060D02*
X87630D01*
X85090Y236220D02*
X87630D01*
X41910D02*
X44450D01*
X41910Y226060D02*
X44450D01*
X490220Y219710D02*
Y222250D01*
X500380Y219710D02*
Y222250D01*
X270510Y170180D02*
X273050D01*
X270510Y180340D02*
X273050D01*
X111760Y360680D02*
X127000D01*
X111760Y367030D02*
X127000D01*
X204470Y173990D02*
X232410D01*
X204470Y175260D02*
X232410D01*
Y176530D01*
X204470D02*
X232410D01*
Y142240D02*
Y193040D01*
X204470Y142240D02*
Y193040D01*
X63500Y275590D02*
Y278130D01*
X53340Y275590D02*
Y278130D01*
X408940Y415290D02*
Y417830D01*
X398780Y415290D02*
Y417830D01*
X408940Y379730D02*
Y382270D01*
X398780Y379730D02*
Y382270D01*
X290830Y82550D02*
Y110490D01*
X289560Y82550D02*
Y110490D01*
X288290D02*
X289560D01*
X288290Y82550D02*
Y110490D01*
X271780D02*
X322580D01*
X271780Y82550D02*
X322580D01*
X490220Y184150D02*
Y186690D01*
X500380Y184150D02*
Y186690D01*
X439420Y184150D02*
Y186690D01*
X449580Y184150D02*
Y186690D01*
X361950Y215900D02*
X364490D01*
X361950Y226060D02*
X364490D01*
X412750Y171450D02*
Y179070D01*
X382270D02*
X412750D01*
X382270Y171450D02*
Y179070D01*
Y171450D02*
X412750D01*
X397510Y198120D02*
X400050D01*
X397510Y208280D02*
X400050D01*
X193040Y278130D02*
Y280670D01*
X203200Y278130D02*
Y280670D01*
X238760Y379730D02*
Y382270D01*
X228600Y379730D02*
Y382270D01*
X256540Y379730D02*
Y382270D01*
X246380Y379730D02*
Y382270D01*
X397510Y215900D02*
X400050D01*
X397510Y226060D02*
X400050D01*
X349250Y171450D02*
X379730D01*
X349250D02*
Y179070D01*
X379730D01*
Y171450D02*
Y179070D01*
X361950Y208280D02*
X364490D01*
X361950Y198120D02*
X364490D01*
X289560Y427990D02*
Y430530D01*
X279400Y427990D02*
Y430530D01*
X220980Y427990D02*
Y430530D01*
X210820Y427990D02*
Y430530D01*
X157480Y382270D02*
Y384810D01*
X147320Y382270D02*
Y384810D01*
X149860Y427990D02*
Y430530D01*
X139700Y427990D02*
Y430530D01*
X33020Y414020D02*
X69850D01*
Y347980D02*
Y414020D01*
X33020Y347980D02*
Y414020D01*
Y347980D02*
X69850D01*
X74930Y283210D02*
X92710D01*
X74930Y278130D02*
Y297180D01*
X92710Y278130D02*
Y297180D01*
X74930Y285750D02*
X92710D01*
X167640Y121920D02*
Y165100D01*
X198120Y121920D02*
Y165100D01*
X271780Y135890D02*
X322580D01*
X271780Y163830D02*
X322580D01*
X288290Y135890D02*
Y163830D01*
X289560D01*
Y135890D02*
Y163830D01*
X290830Y135890D02*
Y163830D01*
X269240Y186690D02*
X294640D01*
X285750D02*
Y224790D01*
X287020Y186690D02*
Y224790D01*
X288290Y186690D02*
Y224790D01*
X289560Y186690D02*
Y224790D01*
X285750Y186690D02*
X287020D01*
X269240D02*
X320040D01*
X269240Y224790D02*
X320040D01*
Y186690D02*
Y187960D01*
Y223520D02*
Y224790D01*
X269240Y223520D02*
Y224790D01*
X449834Y244348D02*
Y254345D01*
X444836D01*
X443170Y252679D01*
Y249346D01*
X444836Y247680D01*
X449834D01*
X446502D02*
X443170Y244348D01*
X439837D02*
X436505D01*
X438171D01*
Y254345D01*
X439837Y252679D01*
X424842Y254345D02*
X428174Y252679D01*
X431507Y249346D01*
Y246014D01*
X429840Y244348D01*
X426508D01*
X424842Y246014D01*
Y247680D01*
X426508Y249346D01*
X431507D01*
X231932Y309128D02*
X233598Y307462D01*
Y304130D01*
X231932Y302464D01*
X225268D01*
X223602Y304130D01*
Y307462D01*
X225268Y309128D01*
X223602Y312461D02*
Y315793D01*
Y314127D01*
X233598D01*
X231932Y312461D01*
Y320791D02*
X233598Y322458D01*
Y325790D01*
X231932Y327456D01*
X230266D01*
X228600Y325790D01*
Y324124D01*
Y325790D01*
X226934Y327456D01*
X225268D01*
X223602Y325790D01*
Y322458D01*
X225268Y320791D01*
X300471Y254792D02*
X302138Y256458D01*
X305470D01*
X307136Y254792D01*
Y248128D01*
X305470Y246462D01*
X302138D01*
X300471Y248128D01*
X297139Y246462D02*
X293807D01*
X295473D01*
Y256458D01*
X297139Y254792D01*
X282144Y246462D02*
X288808D01*
X282144Y253126D01*
Y254792D01*
X283810Y256458D01*
X287142D01*
X288808Y254792D01*
X379252Y280315D02*
X380918Y278649D01*
Y275316D01*
X379252Y273650D01*
X372588D01*
X370922Y275316D01*
Y278649D01*
X372588Y280315D01*
X370922Y283647D02*
Y286979D01*
Y285313D01*
X380918D01*
X379252Y283647D01*
X370922Y291978D02*
Y295310D01*
Y293644D01*
X380918D01*
X379252Y291978D01*
X341111Y402112D02*
X342778Y403778D01*
X346110D01*
X347776Y402112D01*
Y395448D01*
X346110Y393782D01*
X342778D01*
X341111Y395448D01*
X337779Y393782D02*
X334447D01*
X336113D01*
Y403778D01*
X337779Y402112D01*
X329449D02*
X327782Y403778D01*
X324450D01*
X322784Y402112D01*
Y395448D01*
X324450Y393782D01*
X327782D01*
X329449Y395448D01*
Y402112D01*
X412109Y154858D02*
Y148194D01*
X408777Y144862D01*
X405444Y148194D01*
Y154858D01*
X402112D02*
X395448D01*
X398780D01*
Y144862D01*
X392116Y153192D02*
X390449Y154858D01*
X387117D01*
X385451Y153192D01*
Y151526D01*
X387117Y149860D01*
X388783D01*
X387117D01*
X385451Y148194D01*
Y146528D01*
X387117Y144862D01*
X390449D01*
X392116Y146528D01*
X376549Y154858D02*
Y148194D01*
X373217Y144862D01*
X369884Y148194D01*
Y154858D01*
X366552D02*
X359888D01*
X363220D01*
Y144862D01*
X349891D02*
X356555D01*
X349891Y151526D01*
Y153192D01*
X351557Y154858D01*
X354889D01*
X356555Y153192D01*
X346069Y124378D02*
Y117714D01*
X342737Y114382D01*
X339404Y117714D01*
Y124378D01*
X336072D02*
Y114382D01*
X331074D01*
X329408Y116048D01*
Y122712D01*
X331074Y124378D01*
X336072D01*
X319411D02*
X326076D01*
Y119380D01*
X322743Y121046D01*
X321077D01*
X319411Y119380D01*
Y116048D01*
X321077Y114382D01*
X324409D01*
X326076Y116048D01*
X343529Y177718D02*
Y171054D01*
X340197Y167722D01*
X336865Y171054D01*
Y177718D01*
X333532D02*
Y167722D01*
X328534D01*
X326868Y169388D01*
Y176052D01*
X328534Y177718D01*
X333532D01*
X318537Y167722D02*
Y177718D01*
X323535Y172720D01*
X316871D01*
X109138Y276231D02*
X102474D01*
X99142Y279563D01*
X102474Y282895D01*
X109138D01*
Y286228D02*
X99142D01*
Y291226D01*
X100808Y292892D01*
X107472D01*
X109138Y291226D01*
Y286228D01*
X107472Y296224D02*
X109138Y297891D01*
Y301223D01*
X107472Y302889D01*
X105806D01*
X104140Y301223D01*
Y299557D01*
Y301223D01*
X102474Y302889D01*
X100808D01*
X99142Y301223D01*
Y297891D01*
X100808Y296224D01*
X340989Y238678D02*
Y232014D01*
X337657Y228682D01*
X334324Y232014D01*
Y238678D01*
X330992D02*
Y228682D01*
X325994D01*
X324328Y230348D01*
Y237012D01*
X325994Y238678D01*
X330992D01*
X314331Y228682D02*
X320995D01*
X314331Y235346D01*
Y237012D01*
X315997Y238678D01*
X319329D01*
X320995Y237012D01*
X246298Y115337D02*
X239634D01*
X236302Y118669D01*
X239634Y122002D01*
X246298D01*
Y125334D02*
X236302D01*
Y130332D01*
X237968Y131998D01*
X244632D01*
X246298Y130332D01*
Y125334D01*
X236302Y135331D02*
Y138663D01*
Y136997D01*
X246298D01*
X244632Y135331D01*
X188118Y293403D02*
X178122D01*
Y288405D01*
X179788Y286738D01*
X183120D01*
X184786Y288405D01*
Y293403D01*
Y290071D02*
X188118Y286738D01*
X179788Y283406D02*
X178122Y281740D01*
Y278408D01*
X179788Y276742D01*
X181454D01*
X183120Y278408D01*
Y280074D01*
Y278408D01*
X184786Y276742D01*
X186452D01*
X188118Y278408D01*
Y281740D01*
X186452Y283406D01*
X188118Y273409D02*
Y270077D01*
Y271743D01*
X178122D01*
X179788Y273409D01*
X261702Y372751D02*
X271698D01*
Y377749D01*
X270032Y379415D01*
X266700D01*
X265034Y377749D01*
Y372751D01*
Y376083D02*
X261702Y379415D01*
X270032Y382748D02*
X271698Y384414D01*
Y387746D01*
X270032Y389412D01*
X268366D01*
X266700Y387746D01*
Y386080D01*
Y387746D01*
X265034Y389412D01*
X263368D01*
X261702Y387746D01*
Y384414D01*
X263368Y382748D01*
X270032Y392744D02*
X271698Y394411D01*
Y397743D01*
X270032Y399409D01*
X263368D01*
X261702Y397743D01*
Y394411D01*
X263368Y392744D01*
X270032D01*
X223438Y394329D02*
X213442D01*
Y389331D01*
X215108Y387664D01*
X218440D01*
X220106Y389331D01*
Y394329D01*
Y390997D02*
X223438Y387664D01*
Y377668D02*
Y384332D01*
X216774Y377668D01*
X215108D01*
X213442Y379334D01*
Y382666D01*
X215108Y384332D01*
X221772Y374336D02*
X223438Y372669D01*
Y369337D01*
X221772Y367671D01*
X215108D01*
X213442Y369337D01*
Y372669D01*
X215108Y374336D01*
X216774D01*
X218440Y372669D01*
Y367671D01*
X320669Y436962D02*
Y446958D01*
X315671D01*
X314004Y445292D01*
Y441960D01*
X315671Y440294D01*
X320669D01*
X317337D02*
X314004Y436962D01*
X304008D02*
X310672D01*
X304008Y443626D01*
Y445292D01*
X305674Y446958D01*
X309006D01*
X310672Y445292D01*
X300676D02*
X299009Y446958D01*
X295677D01*
X294011Y445292D01*
Y443626D01*
X295677Y441960D01*
X294011Y440294D01*
Y438628D01*
X295677Y436962D01*
X299009D01*
X300676Y438628D01*
Y440294D01*
X299009Y441960D01*
X300676Y443626D01*
Y445292D01*
X299009Y441960D02*
X295677D01*
X249549Y436962D02*
Y446958D01*
X244551D01*
X242885Y445292D01*
Y441960D01*
X244551Y440294D01*
X249549D01*
X246217D02*
X242885Y436962D01*
X232888D02*
X239552D01*
X232888Y443626D01*
Y445292D01*
X234554Y446958D01*
X237886D01*
X239552Y445292D01*
X229555Y446958D02*
X222891D01*
Y445292D01*
X229555Y438628D01*
Y436962D01*
X180969D02*
Y446958D01*
X175971D01*
X174305Y445292D01*
Y441960D01*
X175971Y440294D01*
X180969D01*
X177637D02*
X174305Y436962D01*
X164308D02*
X170972D01*
X164308Y443626D01*
Y445292D01*
X165974Y446958D01*
X169306D01*
X170972Y445292D01*
X154311Y446958D02*
X157643Y445292D01*
X160975Y441960D01*
Y438628D01*
X159309Y436962D01*
X155977D01*
X154311Y438628D01*
Y440294D01*
X155977Y441960D01*
X160975D01*
X162642Y370211D02*
X172638D01*
Y375209D01*
X170972Y376875D01*
X167640D01*
X165974Y375209D01*
Y370211D01*
Y373543D02*
X162642Y376875D01*
Y386872D02*
Y380208D01*
X169306Y386872D01*
X170972D01*
X172638Y385206D01*
Y381874D01*
X170972Y380208D01*
X172638Y396869D02*
Y390205D01*
X167640D01*
X169306Y393537D01*
Y395203D01*
X167640Y396869D01*
X164308D01*
X162642Y395203D01*
Y391871D01*
X164308Y390205D01*
X238842Y182251D02*
X248838D01*
Y187249D01*
X247172Y188915D01*
X243840D01*
X242174Y187249D01*
Y182251D01*
Y185583D02*
X238842Y188915D01*
Y198912D02*
Y192248D01*
X245506Y198912D01*
X247172D01*
X248838Y197246D01*
Y193914D01*
X247172Y192248D01*
X238842Y207243D02*
X248838D01*
X243840Y202244D01*
Y208909D01*
X416642Y192411D02*
X426638D01*
Y197409D01*
X424972Y199075D01*
X421640D01*
X419974Y197409D01*
Y192411D01*
Y195743D02*
X416642Y199075D01*
Y209072D02*
Y202408D01*
X423306Y209072D01*
X424972D01*
X426638Y207406D01*
Y204074D01*
X424972Y202408D01*
Y212404D02*
X426638Y214071D01*
Y217403D01*
X424972Y219069D01*
X423306D01*
X421640Y217403D01*
Y215737D01*
Y217403D01*
X419974Y219069D01*
X418308D01*
X416642Y217403D01*
Y214071D01*
X418308Y212404D01*
X411949Y230982D02*
Y240978D01*
X406951D01*
X405285Y239312D01*
Y235980D01*
X406951Y234314D01*
X411949D01*
X408617D02*
X405285Y230982D01*
X395288D02*
X401952D01*
X395288Y237646D01*
Y239312D01*
X396954Y240978D01*
X400286D01*
X401952Y239312D01*
X385291Y230982D02*
X391955D01*
X385291Y237646D01*
Y239312D01*
X386957Y240978D01*
X390289D01*
X391955Y239312D01*
X311383Y170262D02*
Y180258D01*
X306385D01*
X304718Y178592D01*
Y175260D01*
X306385Y173594D01*
X311383D01*
X308051D02*
X304718Y170262D01*
X294722D02*
X301386D01*
X294722Y176926D01*
Y178592D01*
X296388Y180258D01*
X299720D01*
X301386Y178592D01*
X291389Y170262D02*
X288057D01*
X289723D01*
Y180258D01*
X291389Y178592D01*
X345358Y211449D02*
X335362D01*
Y206451D01*
X337028Y204785D01*
X340360D01*
X342026Y206451D01*
Y211449D01*
Y208117D02*
X345358Y204785D01*
Y194788D02*
Y201452D01*
X338694Y194788D01*
X337028D01*
X335362Y196454D01*
Y199786D01*
X337028Y201452D01*
Y191455D02*
X335362Y189789D01*
Y186457D01*
X337028Y184791D01*
X343692D01*
X345358Y186457D01*
Y189789D01*
X343692Y191455D01*
X337028D01*
X375876Y230982D02*
Y240978D01*
X370878D01*
X369212Y239312D01*
Y235980D01*
X370878Y234314D01*
X375876D01*
X372544D02*
X369212Y230982D01*
X365879D02*
X362547D01*
X364213D01*
Y240978D01*
X365879Y239312D01*
X357548Y232648D02*
X355882Y230982D01*
X352550D01*
X350884Y232648D01*
Y239312D01*
X352550Y240978D01*
X355882D01*
X357548Y239312D01*
Y237646D01*
X355882Y235980D01*
X350884D01*
X393858Y393656D02*
X383862D01*
Y388658D01*
X385528Y386992D01*
X388860D01*
X390526Y388658D01*
Y393656D01*
Y390324D02*
X393858Y386992D01*
Y383659D02*
Y380327D01*
Y381993D01*
X383862D01*
X385528Y383659D01*
Y375328D02*
X383862Y373662D01*
Y370330D01*
X385528Y368664D01*
X387194D01*
X388860Y370330D01*
X390526Y368664D01*
X392192D01*
X393858Y370330D01*
Y373662D01*
X392192Y375328D01*
X390526D01*
X388860Y373662D01*
X387194Y375328D01*
X385528D01*
X388860Y373662D02*
Y370330D01*
X393618Y429056D02*
X383622D01*
Y424058D01*
X385288Y422392D01*
X388620D01*
X390286Y424058D01*
Y429056D01*
Y425724D02*
X393618Y422392D01*
Y419059D02*
Y415727D01*
Y417393D01*
X383622D01*
X385288Y419059D01*
X383622Y410728D02*
Y404064D01*
X385288D01*
X391952Y410728D01*
X393618D01*
X434258Y187756D02*
X424262D01*
Y182758D01*
X425928Y181091D01*
X429260D01*
X430926Y182758D01*
Y187756D01*
Y184424D02*
X434258Y181091D01*
Y177759D02*
Y174427D01*
Y176093D01*
X424262D01*
X425928Y177759D01*
X424262Y162764D02*
Y169429D01*
X429260D01*
X427594Y166096D01*
Y164430D01*
X429260Y162764D01*
X432592D01*
X434258Y164430D01*
Y167762D01*
X432592Y169429D01*
X70916Y297262D02*
Y307258D01*
X65918D01*
X64251Y305592D01*
Y302260D01*
X65918Y300594D01*
X70916D01*
X67584D02*
X64251Y297262D01*
X60919D02*
X57587D01*
X59253D01*
Y307258D01*
X60919Y305592D01*
X47590Y297262D02*
Y307258D01*
X52589Y302260D01*
X45924D01*
X500634Y244348D02*
Y254345D01*
X495636D01*
X493969Y252679D01*
Y249346D01*
X495636Y247680D01*
X500634D01*
X497302D02*
X493969Y244348D01*
X490637D02*
X487305D01*
X488971D01*
Y254345D01*
X490637Y252679D01*
X482307D02*
X480640Y254345D01*
X477308D01*
X475642Y252679D01*
Y251012D01*
X477308Y249346D01*
X478974D01*
X477308D01*
X475642Y247680D01*
Y246014D01*
X477308Y244348D01*
X480640D01*
X482307Y246014D01*
X484978Y198076D02*
X474981D01*
Y193078D01*
X476648Y191411D01*
X479980D01*
X481646Y193078D01*
Y198076D01*
Y194744D02*
X484978Y191411D01*
Y188079D02*
Y184747D01*
Y186413D01*
X474981D01*
X476648Y188079D01*
X484978Y173084D02*
Y179748D01*
X478314Y173084D01*
X476648D01*
X474981Y174750D01*
Y178082D01*
X476648Y179748D01*
X20238Y203870D02*
X10242D01*
Y198871D01*
X11908Y197205D01*
X15240D01*
X16906Y198871D01*
Y203870D01*
Y200538D02*
X20238Y197205D01*
Y193873D02*
Y190541D01*
Y192207D01*
X10242D01*
X11908Y193873D01*
X20238Y185542D02*
Y182210D01*
Y183876D01*
X10242D01*
X11908Y185542D01*
X106762Y178004D02*
X116758D01*
Y183002D01*
X115092Y184669D01*
X111760D01*
X110094Y183002D01*
Y178004D01*
Y181336D02*
X106762Y184669D01*
Y188001D02*
Y191333D01*
Y189667D01*
X116758D01*
X115092Y188001D01*
Y196331D02*
X116758Y197997D01*
Y201330D01*
X115092Y202996D01*
X108428D01*
X106762Y201330D01*
Y197997D01*
X108428Y196331D01*
X115092D01*
X162642Y187249D02*
X172638D01*
Y192248D01*
X170972Y193914D01*
X167640D01*
X165974Y192248D01*
Y187249D01*
Y190582D02*
X162642Y193914D01*
X164308Y197246D02*
X162642Y198912D01*
Y202244D01*
X164308Y203911D01*
X170972D01*
X172638Y202244D01*
Y198912D01*
X170972Y197246D01*
X169306D01*
X167640Y198912D01*
Y203911D01*
X57404Y245364D02*
Y255361D01*
X52406D01*
X50739Y253695D01*
Y250362D01*
X52406Y248696D01*
X57404D01*
X54072D02*
X50739Y245364D01*
X47407Y253695D02*
X45741Y255361D01*
X42409D01*
X40743Y253695D01*
Y252029D01*
X42409Y250362D01*
X40743Y248696D01*
Y247030D01*
X42409Y245364D01*
X45741D01*
X47407Y247030D01*
Y248696D01*
X45741Y250362D01*
X47407Y252029D01*
Y253695D01*
X45741Y250362D02*
X42409D01*
X100584Y245364D02*
Y255361D01*
X95586D01*
X93919Y253695D01*
Y250362D01*
X95586Y248696D01*
X100584D01*
X97252D02*
X93919Y245364D01*
X90587Y255361D02*
X83923D01*
Y253695D01*
X90587Y247030D01*
Y245364D01*
X155651Y155022D02*
Y165018D01*
X150652D01*
X148986Y163352D01*
Y160020D01*
X150652Y158354D01*
X155651D01*
X152318D02*
X148986Y155022D01*
X138989Y165018D02*
X142322Y163352D01*
X145654Y160020D01*
Y156688D01*
X143988Y155022D01*
X140655D01*
X138989Y156688D01*
Y158354D01*
X140655Y160020D01*
X145654D01*
X32309Y96438D02*
Y86442D01*
X37308D01*
X38974Y88108D01*
Y91440D01*
X37308Y93106D01*
X32309D01*
X35642D02*
X38974Y96438D01*
X48971Y86442D02*
X42306D01*
Y91440D01*
X45638Y89774D01*
X47305D01*
X48971Y91440D01*
Y94772D01*
X47305Y96438D01*
X43972D01*
X42306Y94772D01*
X80569Y98978D02*
Y88982D01*
X85568D01*
X87234Y90648D01*
Y93980D01*
X85568Y95646D01*
X80569D01*
X83902D02*
X87234Y98978D01*
X95564D02*
Y88982D01*
X90566Y93980D01*
X97231D01*
X197866Y191262D02*
Y201259D01*
X192868D01*
X191201Y199593D01*
Y196260D01*
X192868Y194594D01*
X197866D01*
X194534D02*
X191201Y191262D01*
X187869D02*
X184537D01*
X186203D01*
Y201259D01*
X187869Y199593D01*
X254082Y283443D02*
X264078D01*
Y278444D01*
X262412Y276778D01*
X255748D01*
X254082Y278444D01*
Y283443D01*
Y273446D02*
X264078D01*
Y268448D01*
X262412Y266782D01*
X255748D01*
X254082Y268448D01*
Y273446D01*
X264078Y263449D02*
Y260117D01*
Y261783D01*
X254082D01*
X255748Y263449D01*
X37063Y431718D02*
Y421722D01*
X32064D01*
X30398Y423388D01*
Y430052D01*
X32064Y431718D01*
X37063D01*
X27066Y421722D02*
Y428386D01*
X23734Y431718D01*
X20402Y428386D01*
Y421722D01*
Y426720D01*
X27066D01*
X17069Y421722D02*
X13737D01*
X15403D01*
Y431718D01*
X17069Y430052D01*
X234472Y277734D02*
X236138Y276068D01*
Y272736D01*
X234472Y271069D01*
X227808D01*
X226142Y272736D01*
Y276068D01*
X227808Y277734D01*
Y281066D02*
X226142Y282732D01*
Y286064D01*
X227808Y287731D01*
X234472D01*
X236138Y286064D01*
Y282732D01*
X234472Y281066D01*
X232806D01*
X231140Y282732D01*
Y287731D01*
X121046Y399572D02*
X122712Y401238D01*
X126045D01*
X127711Y399572D01*
Y392908D01*
X126045Y391242D01*
X122712D01*
X121046Y392908D01*
X117714Y399572D02*
X116048Y401238D01*
X112716D01*
X111049Y399572D01*
Y397906D01*
X112716Y396240D01*
X111049Y394574D01*
Y392908D01*
X112716Y391242D01*
X116048D01*
X117714Y392908D01*
Y394574D01*
X116048Y396240D01*
X117714Y397906D01*
Y399572D01*
X116048Y396240D02*
X112716D01*
X463489Y252679D02*
X465156Y254345D01*
X468488D01*
X470154Y252679D01*
Y246014D01*
X468488Y244348D01*
X465156D01*
X463489Y246014D01*
X453493Y254345D02*
X456825Y252679D01*
X460157Y249346D01*
Y246014D01*
X458491Y244348D01*
X455159D01*
X453493Y246014D01*
Y247680D01*
X455159Y249346D01*
X460157D01*
X531652Y219314D02*
X533318Y217648D01*
Y214315D01*
X531652Y212649D01*
X524988D01*
X523322Y214315D01*
Y217648D01*
X524988Y219314D01*
X523322Y227645D02*
X533318D01*
X528320Y222646D01*
Y229311D01*
X11908Y220106D02*
X10242Y221772D01*
Y225105D01*
X11908Y226771D01*
X18572D01*
X20238Y225105D01*
Y221772D01*
X18572Y220106D01*
X11908Y216774D02*
X10242Y215108D01*
Y211775D01*
X11908Y210109D01*
X13574D01*
X15240Y211775D01*
Y213442D01*
Y211775D01*
X16906Y210109D01*
X18572D01*
X20238Y211775D01*
Y215108D01*
X18572Y216774D01*
X115092D02*
X116758Y215108D01*
Y211775D01*
X115092Y210109D01*
X108428D01*
X106762Y211775D01*
Y215108D01*
X108428Y216774D01*
X106762Y226771D02*
Y220106D01*
X113426Y226771D01*
X115092D01*
X116758Y225105D01*
Y221772D01*
X115092Y220106D01*
X152339Y233375D02*
X154006Y235041D01*
X157338D01*
X159004Y233375D01*
Y226710D01*
X157338Y225044D01*
X154006D01*
X152339Y226710D01*
X149007Y225044D02*
X145675D01*
X147341D01*
Y235041D01*
X149007Y233375D01*
D63*
X87630Y207010D02*
Y219710D01*
X85090Y207010D02*
Y219710D01*
X41910Y207010D02*
Y219710D01*
X44450Y207010D02*
Y219710D01*
X146050Y204470D02*
Y217170D01*
X143510Y204470D02*
Y217170D01*
X458470Y219710D02*
X471170D01*
X458470Y222250D02*
X471170D01*
X354330Y283210D02*
X367030D01*
X354330Y285750D02*
X367030D01*
X209550Y278130D02*
X222250D01*
X209550Y280670D02*
X222250D01*
X336550Y374650D02*
Y387350D01*
X334010Y374650D02*
Y387350D01*
X293370Y229870D02*
Y242570D01*
X295910Y229870D02*
Y242570D01*
X221000Y346710D02*
X233700D01*
X221000Y344170D02*
X233700D01*
X506730Y219710D02*
X519430D01*
X506730Y222250D02*
X519430D01*
M02*
