G04*
G04 #@! TF.GenerationSoftware,Altium Limited,Altium Designer,23.5.1 (21)*
G04*
G04 Layer_Physical_Order=1*
G04 Layer_Color=255*
%FSLAX44Y44*%
%MOMM*%
G71*
G04*
G04 #@! TF.SameCoordinates,1C69412E-B372-4F46-9B7E-F97621244732*
G04*
G04*
G04 #@! TF.FilePolarity,Positive*
G04*
G01*
G75*
%ADD18C,0.5000*%
%ADD19C,1.0000*%
%ADD20C,0.2500*%
%ADD21C,1.8000*%
%ADD22O,2.0000X3.0000*%
%ADD23C,1.6000*%
%ADD24O,1.6000X1.8000*%
%ADD25O,2.5000X2.0000*%
%ADD26O,1.8000X1.6000*%
%ADD27C,1.0000*%
%ADD28C,0.6000*%
G36*
X354308Y396141D02*
Y366733D01*
X353038Y366320D01*
X343169Y376189D01*
X341602Y377391D01*
X339778Y378147D01*
X337820Y378405D01*
X295650D01*
X294877Y379412D01*
X295020Y379947D01*
Y382053D01*
X294475Y384088D01*
X293422Y385912D01*
X291932Y387402D01*
X290108Y388455D01*
X288073Y389000D01*
X287400D01*
Y389673D01*
X286855Y391708D01*
X285802Y393532D01*
X284312Y395022D01*
X283713Y395368D01*
X284053Y396638D01*
X353811D01*
X354308Y396141D01*
D02*
G37*
G36*
X457200Y260295D02*
X457200Y259080D01*
X455953Y259025D01*
X433297D01*
X432860Y259462D01*
X430580Y260779D01*
X428036Y261460D01*
X425404D01*
X422860Y260779D01*
X420580Y259462D01*
X418718Y257600D01*
X417402Y255320D01*
X416720Y252777D01*
Y250144D01*
X417402Y247600D01*
X418718Y245320D01*
X420580Y243458D01*
X422860Y242141D01*
X425404Y241460D01*
X428036D01*
X430580Y242141D01*
X432860Y243458D01*
X433297Y243895D01*
X512487D01*
X518215Y238167D01*
Y197708D01*
X516945Y196975D01*
X515990Y197526D01*
X514350Y197966D01*
Y190500D01*
X513080D01*
Y189230D01*
X505614D01*
X506054Y187590D01*
X507047Y185870D01*
X508450Y184466D01*
X509094Y184095D01*
X508754Y182825D01*
X476477D01*
X476040Y183262D01*
X473760Y184578D01*
X471805Y185102D01*
X471779Y185123D01*
X471229Y186335D01*
X471231Y186524D01*
X471846Y187590D01*
X472286Y189230D01*
X457354D01*
X457794Y187590D01*
X458787Y185870D01*
X460190Y184466D01*
X461910Y183474D01*
X462309Y183367D01*
X462638Y182140D01*
X461898Y181400D01*
X460582Y179120D01*
X459900Y176576D01*
Y173944D01*
X460582Y171400D01*
X461898Y169120D01*
X463760Y167258D01*
X466040Y165942D01*
X468583Y165260D01*
X471217D01*
X473760Y165942D01*
X476040Y167258D01*
X476477Y167695D01*
X522851D01*
X524809Y167953D01*
X526633Y168709D01*
X528200Y169911D01*
X531129Y172840D01*
X532331Y174407D01*
X533087Y176231D01*
X533345Y178189D01*
Y241300D01*
X533087Y243258D01*
X532331Y245082D01*
X531129Y246649D01*
X531129Y246649D01*
X520969Y256809D01*
X519665Y257810D01*
X519916Y258941D01*
X519993Y259080D01*
X548640D01*
Y154940D01*
X372132D01*
Y187861D01*
X373479Y189208D01*
X424319D01*
X424348Y189178D01*
X426172Y188125D01*
X428207Y187580D01*
X430313D01*
X432348Y188125D01*
X434172Y189178D01*
X435662Y190668D01*
X436715Y192492D01*
X437260Y194527D01*
Y196633D01*
X436868Y198097D01*
X437657Y199368D01*
X469584D01*
X470042Y197658D01*
X469882Y197421D01*
X469073Y196751D01*
X467730Y197526D01*
X466090Y197966D01*
Y191770D01*
X472286D01*
X471882Y193277D01*
X472212Y193634D01*
X472931Y194072D01*
X474432Y193205D01*
X476467Y192660D01*
X478573D01*
X480608Y193205D01*
X482432Y194258D01*
X483922Y195748D01*
X484975Y197572D01*
X485520Y199607D01*
Y201713D01*
X484975Y203748D01*
X483922Y205572D01*
X482432Y207062D01*
X480608Y208115D01*
X478573Y208660D01*
X478532D01*
X476946Y210246D01*
X474879Y211627D01*
X472440Y212112D01*
X345440D01*
X343001Y211627D01*
X340934Y210246D01*
X335854Y205166D01*
X334473Y203099D01*
X333988Y200660D01*
Y154940D01*
X2540D01*
Y234023D01*
X3713Y234508D01*
X7780Y230442D01*
Y229823D01*
X8461Y227280D01*
X9778Y225000D01*
X11640Y223138D01*
X13920Y221821D01*
X14620Y221634D01*
X14777Y220848D01*
X14711Y220295D01*
X13150Y219394D01*
X11746Y217990D01*
X10754Y216270D01*
X10314Y214630D01*
X25246D01*
X24806Y216270D01*
X23814Y217990D01*
X22410Y219394D01*
X20849Y220295D01*
X20783Y220848D01*
X20940Y221634D01*
X21640Y221821D01*
X23920Y223138D01*
X24357Y223575D01*
X91495D01*
Y180340D01*
X91753Y178382D01*
X92509Y176558D01*
X93711Y174991D01*
X98791Y169911D01*
X98791Y169911D01*
X100358Y168709D01*
X102182Y167953D01*
X104140Y167695D01*
X104140Y167695D01*
X112803D01*
X113240Y167258D01*
X115520Y165942D01*
X118063Y165260D01*
X120696D01*
X123240Y165942D01*
X125520Y167258D01*
X127382Y169120D01*
X128699Y171400D01*
X129380Y173944D01*
Y176576D01*
X128699Y179120D01*
X127382Y181400D01*
X125520Y183262D01*
X123240Y184578D01*
X120696Y185260D01*
X118063D01*
X115520Y184578D01*
X113240Y183262D01*
X112803Y182825D01*
X107273D01*
X106625Y183473D01*
Y206173D01*
X107218Y206419D01*
X107895Y206580D01*
X109571Y205613D01*
X111211Y205173D01*
Y212639D01*
X112481D01*
Y213909D01*
X119947D01*
X119507Y215549D01*
X118515Y217269D01*
X117111Y218672D01*
X117028Y218720D01*
X117369Y219990D01*
X118156D01*
X120700Y220672D01*
X122980Y221988D01*
X124842Y223850D01*
X126159Y226130D01*
X126840Y228673D01*
Y231306D01*
X126159Y233850D01*
X124842Y236130D01*
X122980Y237992D01*
X120700Y239308D01*
X118156Y239990D01*
X115524D01*
X112980Y239308D01*
X111600Y238511D01*
X107599D01*
X106131Y238705D01*
X24357D01*
X23920Y239142D01*
X21640Y240459D01*
X19096Y241140D01*
X18478D01*
X15185Y244433D01*
Y256645D01*
X16455Y257099D01*
X17322Y256042D01*
X19606Y254168D01*
X22212Y252775D01*
X25040Y251917D01*
X27980Y251627D01*
X32980D01*
X35921Y251917D01*
X38748Y252775D01*
X41354Y254168D01*
X43638Y256042D01*
X45512Y258326D01*
X46905Y260932D01*
X47763Y263759D01*
X48053Y266700D01*
X47763Y269641D01*
X46905Y272468D01*
X45512Y275074D01*
X43638Y277358D01*
X42147Y278582D01*
Y280218D01*
X43638Y281442D01*
X44107Y282014D01*
X142314D01*
Y247158D01*
X142657Y244547D01*
X143665Y242115D01*
X145268Y240026D01*
X151126Y234168D01*
X153215Y232565D01*
X155647Y231557D01*
X158258Y231214D01*
X205814D01*
Y226738D01*
X205497Y226422D01*
X203786Y223458D01*
X202900Y220152D01*
Y216728D01*
X203786Y213422D01*
X205497Y210458D01*
X207918Y208037D01*
X210882Y206326D01*
X214188Y205440D01*
X217612D01*
X220918Y206326D01*
X223882Y208037D01*
X226303Y210458D01*
X228014Y213422D01*
X228900Y216728D01*
Y220152D01*
X228014Y223458D01*
X226303Y226422D01*
X225986Y226738D01*
Y236220D01*
X225643Y238831D01*
X224635Y241263D01*
X223590Y242625D01*
X224216Y243895D01*
X233087D01*
X236275Y240707D01*
Y227557D01*
X235838Y227120D01*
X234522Y224840D01*
X233840Y222297D01*
Y219664D01*
X234522Y217120D01*
X235838Y214840D01*
X237700Y212978D01*
X239980Y211661D01*
X242523Y210980D01*
X245156D01*
X247700Y211661D01*
X249980Y212978D01*
X251842Y214840D01*
X253158Y217120D01*
X253840Y219664D01*
Y222297D01*
X253158Y224840D01*
X251842Y227120D01*
X251405Y227557D01*
Y231195D01*
X375920D01*
X377878Y231453D01*
X379702Y232209D01*
X381269Y233411D01*
X386349Y238491D01*
X386349Y238491D01*
X387551Y240058D01*
X388307Y241882D01*
X388565Y243840D01*
X388565Y243840D01*
Y267743D01*
X389002Y268180D01*
X390318Y270460D01*
X391000Y273004D01*
Y275637D01*
X390318Y278180D01*
X389002Y280460D01*
X388565Y280897D01*
Y287432D01*
X389835Y288165D01*
X390790Y287614D01*
X392430Y287174D01*
Y294640D01*
Y302106D01*
X390790Y301666D01*
X389835Y301115D01*
X388565Y301848D01*
Y325120D01*
X388307Y327078D01*
X387551Y328902D01*
X386349Y330469D01*
X386349Y330469D01*
X383809Y333009D01*
X382242Y334211D01*
X380418Y334967D01*
X378460Y335225D01*
X375865D01*
Y420143D01*
X376302Y420580D01*
X377618Y422860D01*
X378300Y425404D01*
Y428036D01*
X377618Y430580D01*
X376302Y432860D01*
X374440Y434722D01*
X372160Y436039D01*
X369617Y436720D01*
X366983D01*
X364440Y436039D01*
X362160Y434722D01*
X360298Y432860D01*
X358982Y430580D01*
X358300Y428036D01*
Y425404D01*
X358982Y422860D01*
X360298Y420580D01*
X360735Y420143D01*
Y409011D01*
X359615Y408412D01*
X358889Y408897D01*
X356450Y409382D01*
X256401D01*
X256372Y409412D01*
X254548Y410465D01*
X252513Y411010D01*
X250407D01*
X248372Y410465D01*
X246548Y409412D01*
X245058Y407922D01*
X244005Y406098D01*
X243460Y404063D01*
Y402612D01*
X181828D01*
X179389Y402127D01*
X177322Y400746D01*
X175834Y399258D01*
X174453Y397191D01*
X173968Y394752D01*
Y335280D01*
X174453Y332841D01*
X175834Y330774D01*
X178374Y328234D01*
X180441Y326853D01*
X182880Y326368D01*
X188760D01*
X189493Y325098D01*
X188801Y323900D01*
X188120Y321357D01*
Y319052D01*
X186334Y317266D01*
X185735Y316370D01*
X184844Y315479D01*
X183463Y313411D01*
X182978Y310973D01*
Y304640D01*
X180753D01*
X179015Y304174D01*
X177745Y305080D01*
Y306951D01*
X177487Y308909D01*
X176731Y310733D01*
X175529Y312300D01*
X172600Y315229D01*
X171033Y316431D01*
X169209Y317187D01*
X167251Y317445D01*
X148302D01*
X147265Y318482D01*
Y354103D01*
X147702Y354540D01*
X149018Y356820D01*
X149700Y359364D01*
Y361996D01*
X149018Y364540D01*
X147702Y366820D01*
X145840Y368682D01*
X143560Y369999D01*
X141017Y370680D01*
X138384D01*
X135840Y369999D01*
X133560Y368682D01*
X131698Y366820D01*
X130381Y364540D01*
X129700Y361996D01*
Y359364D01*
X130381Y356820D01*
X131698Y354540D01*
X132135Y354103D01*
Y315349D01*
X132393Y313391D01*
X133149Y311567D01*
X134351Y310000D01*
X139820Y304531D01*
X139820Y304531D01*
X141220Y303456D01*
X141171Y302853D01*
X140870Y302186D01*
X44107D01*
X43638Y302758D01*
X42147Y303982D01*
Y305618D01*
X43638Y306842D01*
X45078Y308597D01*
X57980D01*
X60591Y308941D01*
X63023Y309949D01*
X65112Y311551D01*
X70761Y317200D01*
X72832D01*
X76138Y318086D01*
X79102Y319797D01*
X81523Y322218D01*
X83234Y325182D01*
X84120Y328489D01*
Y331912D01*
X83234Y335218D01*
X81523Y338182D01*
X79102Y340603D01*
X76138Y342314D01*
X72832Y343200D01*
X69408D01*
X66102Y342314D01*
X63138Y340603D01*
X60717Y338182D01*
X59006Y335218D01*
X58551Y333518D01*
X53802Y328770D01*
X42892D01*
X41354Y330032D01*
X38748Y331425D01*
X35921Y332283D01*
X32980Y332573D01*
X27980D01*
X25040Y332283D01*
X22212Y331425D01*
X19606Y330032D01*
X17322Y328158D01*
X16455Y327101D01*
X15185Y327555D01*
Y370247D01*
X18373Y373435D01*
X44223D01*
X44660Y372998D01*
X46940Y371682D01*
X49483Y371000D01*
X52116D01*
X54660Y371682D01*
X56940Y372998D01*
X58802Y374860D01*
X60118Y377140D01*
X60800Y379683D01*
Y382317D01*
X60118Y384860D01*
X58802Y387140D01*
X56940Y389002D01*
X54660Y390318D01*
X52116Y391000D01*
X49483D01*
X46940Y390318D01*
X44660Y389002D01*
X44223Y388565D01*
X15240D01*
X13282Y388307D01*
X11458Y387551D01*
X9891Y386349D01*
X3713Y380172D01*
X2540Y380658D01*
Y447040D01*
X457200D01*
Y260295D01*
D02*
G37*
G36*
X340415Y357547D02*
Y332740D01*
X340673Y330782D01*
X341429Y328958D01*
X342631Y327391D01*
X347711Y322311D01*
X347711Y322311D01*
X349278Y321109D01*
X351102Y320353D01*
X353060Y320095D01*
X353060Y320095D01*
X373435D01*
Y280897D01*
X372998Y280460D01*
X371682Y278180D01*
X371000Y275637D01*
Y273004D01*
X371682Y270460D01*
X372998Y268180D01*
X373435Y267743D01*
Y246973D01*
X372787Y246325D01*
X250929D01*
X250391Y247622D01*
X249189Y249189D01*
X246844Y251534D01*
X247330Y252708D01*
X288985D01*
X289608Y251628D01*
X291098Y250138D01*
X292922Y249085D01*
X294957Y248540D01*
X297063D01*
X299098Y249085D01*
X300922Y250138D01*
X302412Y251628D01*
X303465Y253452D01*
X304010Y255487D01*
Y257593D01*
X303465Y259628D01*
X302412Y261452D01*
X300922Y262942D01*
X299098Y263995D01*
X297063Y264540D01*
X295870D01*
X295231Y264967D01*
X292792Y265452D01*
X237610D01*
X236813Y266723D01*
X237201Y268171D01*
Y270278D01*
X237362Y270488D01*
X259080D01*
X261519Y270973D01*
X263586Y272354D01*
X269856Y278624D01*
X271237Y280691D01*
X271722Y283130D01*
Y326470D01*
X271237Y328909D01*
X269856Y330976D01*
X263586Y337246D01*
X261882Y338384D01*
X261831Y338548D01*
Y339632D01*
X261882Y339796D01*
X263586Y340934D01*
X266126Y343474D01*
X267507Y345541D01*
X267992Y347980D01*
Y350659D01*
X268022Y350688D01*
X269075Y352512D01*
X269620Y354547D01*
Y356653D01*
X269075Y358688D01*
X268022Y360512D01*
X266532Y362002D01*
X266526Y362005D01*
X266866Y363275D01*
X334687D01*
X340415Y357547D01*
D02*
G37*
%LPC*%
G36*
X124088Y438040D02*
X123970D01*
Y428770D01*
X133240D01*
Y428888D01*
X132522Y431568D01*
X131134Y433972D01*
X129172Y435934D01*
X126768Y437322D01*
X124088Y438040D01*
D02*
G37*
G36*
X327488D02*
X327370D01*
Y428770D01*
X336640D01*
Y428888D01*
X335922Y431568D01*
X334534Y433972D01*
X332572Y435934D01*
X330168Y437322D01*
X327488Y438040D01*
D02*
G37*
G36*
X191888D02*
X191770D01*
Y428770D01*
X201040D01*
Y428888D01*
X200322Y431568D01*
X198934Y433972D01*
X196972Y435934D01*
X194568Y437322D01*
X191888Y438040D01*
D02*
G37*
G36*
X259688D02*
X259570D01*
Y428770D01*
X268840D01*
Y428888D01*
X268122Y431568D01*
X266734Y433972D01*
X264772Y435934D01*
X262368Y437322D01*
X259688Y438040D01*
D02*
G37*
G36*
X257030D02*
X256912D01*
X254232Y437322D01*
X251828Y435934D01*
X249866Y433972D01*
X248478Y431568D01*
X247760Y428888D01*
Y428770D01*
X257030D01*
Y438040D01*
D02*
G37*
G36*
X324830D02*
X324712D01*
X322032Y437322D01*
X319628Y435934D01*
X317666Y433972D01*
X316278Y431568D01*
X315560Y428888D01*
Y428770D01*
X324830D01*
Y438040D01*
D02*
G37*
G36*
X189230D02*
X189112D01*
X186432Y437322D01*
X184028Y435934D01*
X182066Y433972D01*
X180678Y431568D01*
X179960Y428888D01*
Y428770D01*
X189230D01*
Y438040D01*
D02*
G37*
G36*
X121430D02*
X121312D01*
X118632Y437322D01*
X116228Y435934D01*
X114266Y433972D01*
X112878Y431568D01*
X112160Y428888D01*
Y428770D01*
X121430D01*
Y438040D01*
D02*
G37*
G36*
X336640Y426230D02*
X327370D01*
Y416960D01*
X327488D01*
X330168Y417678D01*
X332572Y419066D01*
X334534Y421028D01*
X335922Y423432D01*
X336640Y426112D01*
Y426230D01*
D02*
G37*
G36*
X324830D02*
X315560D01*
Y426112D01*
X316278Y423432D01*
X317666Y421028D01*
X319628Y419066D01*
X322032Y417678D01*
X324712Y416960D01*
X324830D01*
Y426230D01*
D02*
G37*
G36*
X268840D02*
X259570D01*
Y416960D01*
X259688D01*
X262368Y417678D01*
X264772Y419066D01*
X266734Y421028D01*
X268122Y423432D01*
X268840Y426112D01*
Y426230D01*
D02*
G37*
G36*
X257030D02*
X247760D01*
Y426112D01*
X248478Y423432D01*
X249866Y421028D01*
X251828Y419066D01*
X254232Y417678D01*
X256912Y416960D01*
X257030D01*
Y426230D01*
D02*
G37*
G36*
X201040D02*
X191770D01*
Y416960D01*
X191888D01*
X194568Y417678D01*
X196972Y419066D01*
X198934Y421028D01*
X200322Y423432D01*
X201040Y426112D01*
Y426230D01*
D02*
G37*
G36*
X189230D02*
X179960D01*
Y426112D01*
X180678Y423432D01*
X182066Y421028D01*
X184028Y419066D01*
X186432Y417678D01*
X189112Y416960D01*
X189230D01*
Y426230D01*
D02*
G37*
G36*
X133240D02*
X123970D01*
Y416960D01*
X124088D01*
X126768Y417678D01*
X129172Y419066D01*
X131134Y421028D01*
X132522Y423432D01*
X133240Y426112D01*
Y426230D01*
D02*
G37*
G36*
X121430D02*
X112160D01*
Y426112D01*
X112878Y423432D01*
X114266Y421028D01*
X116228Y419066D01*
X118632Y417678D01*
X121312Y416960D01*
X121430D01*
Y426230D01*
D02*
G37*
G36*
X302411Y440500D02*
X298988D01*
X295682Y439614D01*
X292718Y437903D01*
X290297Y435482D01*
X288586Y432518D01*
X287700Y429212D01*
Y425789D01*
X288586Y422482D01*
X290297Y419518D01*
X292718Y417098D01*
X295682Y415386D01*
X298988Y414500D01*
X302411D01*
X305718Y415386D01*
X308682Y417098D01*
X311103Y419518D01*
X312814Y422482D01*
X313700Y425789D01*
Y429212D01*
X312814Y432518D01*
X311103Y435482D01*
X308682Y437903D01*
X305718Y439614D01*
X302411Y440500D01*
D02*
G37*
G36*
X234611D02*
X231189D01*
X227882Y439614D01*
X224918Y437903D01*
X222497Y435482D01*
X220786Y432518D01*
X219900Y429212D01*
Y425789D01*
X220786Y422482D01*
X222497Y419518D01*
X224918Y417098D01*
X227882Y415386D01*
X231189Y414500D01*
X234611D01*
X237918Y415386D01*
X240882Y417098D01*
X243302Y419518D01*
X245014Y422482D01*
X245900Y425789D01*
Y429212D01*
X245014Y432518D01*
X243302Y435482D01*
X240882Y437903D01*
X237918Y439614D01*
X234611Y440500D01*
D02*
G37*
G36*
X166812D02*
X163389D01*
X160082Y439614D01*
X157118Y437903D01*
X154697Y435482D01*
X152986Y432518D01*
X152100Y429212D01*
Y425789D01*
X152986Y422482D01*
X154697Y419518D01*
X157118Y417098D01*
X160082Y415386D01*
X163389Y414500D01*
X166812D01*
X170118Y415386D01*
X173082Y417098D01*
X175503Y419518D01*
X177214Y422482D01*
X178100Y425789D01*
Y429212D01*
X177214Y432518D01*
X175503Y435482D01*
X173082Y437903D01*
X170118Y439614D01*
X166812Y440500D01*
D02*
G37*
G36*
X99011D02*
X95589D01*
X92282Y439614D01*
X89318Y437903D01*
X86897Y435482D01*
X85186Y432518D01*
X84300Y429212D01*
Y425789D01*
X85186Y422482D01*
X86897Y419518D01*
X89318Y417098D01*
X92282Y415386D01*
X95589Y414500D01*
X99011D01*
X102318Y415386D01*
X105282Y417098D01*
X107703Y419518D01*
X109414Y422482D01*
X110300Y425789D01*
Y429212D01*
X109414Y432518D01*
X107703Y435482D01*
X105282Y437903D01*
X102318Y439614D01*
X99011Y440500D01*
D02*
G37*
G36*
X431000Y438912D02*
X429000D01*
X425606Y438465D01*
X422444Y437155D01*
X419728Y435072D01*
X417645Y432356D01*
X416335Y429194D01*
X415888Y425800D01*
X416335Y422406D01*
X417645Y419244D01*
X419728Y416528D01*
X422444Y414445D01*
X424031Y413787D01*
Y412413D01*
X422444Y411755D01*
X419728Y409672D01*
X417645Y406956D01*
X416335Y403794D01*
X415888Y400400D01*
X416335Y397006D01*
X417645Y393844D01*
X419728Y391128D01*
X422444Y389045D01*
X424031Y388387D01*
Y387013D01*
X422444Y386356D01*
X419728Y384272D01*
X417645Y381556D01*
X416335Y378394D01*
X415888Y375000D01*
X416335Y371606D01*
X417645Y368444D01*
X419728Y365728D01*
X422444Y363645D01*
X425606Y362335D01*
X429000Y361888D01*
X431000D01*
X434394Y362335D01*
X437556Y363645D01*
X440272Y365728D01*
X442355Y368444D01*
X443665Y371606D01*
X444112Y375000D01*
X443665Y378394D01*
X442355Y381556D01*
X440272Y384272D01*
X437556Y386356D01*
X435969Y387013D01*
Y388387D01*
X437556Y389045D01*
X440272Y391128D01*
X442355Y393844D01*
X443665Y397006D01*
X444112Y400400D01*
X443665Y403794D01*
X442355Y406956D01*
X440272Y409672D01*
X437556Y411755D01*
X435969Y412413D01*
Y413787D01*
X437556Y414445D01*
X440272Y416528D01*
X442355Y419244D01*
X443665Y422406D01*
X444112Y425800D01*
X443665Y429194D01*
X442355Y432356D01*
X440272Y435072D01*
X437556Y437155D01*
X434394Y438465D01*
X431000Y438912D01*
D02*
G37*
G36*
X431270Y360195D02*
Y350870D01*
X441464D01*
X441269Y352351D01*
X440207Y354916D01*
X438517Y357117D01*
X436315Y358807D01*
X433751Y359869D01*
X431270Y360195D01*
D02*
G37*
G36*
X428730Y360195D02*
X426249Y359869D01*
X423685Y358807D01*
X421483Y357117D01*
X419793Y354916D01*
X418731Y352351D01*
X418536Y350870D01*
X428730D01*
Y360195D01*
D02*
G37*
G36*
X441464Y348330D02*
X431270D01*
Y339005D01*
X433751Y339331D01*
X436315Y340393D01*
X438517Y342083D01*
X440207Y344285D01*
X441269Y346848D01*
X441464Y348330D01*
D02*
G37*
G36*
X428730D02*
X418536D01*
X418731Y346848D01*
X419793Y344285D01*
X421483Y342083D01*
X423685Y340393D01*
X426249Y339331D01*
X428730Y339005D01*
Y348330D01*
D02*
G37*
G36*
X97908Y340740D02*
X97790D01*
Y331470D01*
X107060D01*
Y331588D01*
X106342Y334268D01*
X104954Y336672D01*
X102992Y338634D01*
X100588Y340022D01*
X97908Y340740D01*
D02*
G37*
G36*
X95250D02*
X95132D01*
X92452Y340022D01*
X90048Y338634D01*
X88086Y336672D01*
X86698Y334268D01*
X85980Y331588D01*
Y331470D01*
X95250D01*
Y340740D01*
D02*
G37*
G36*
X431270Y334795D02*
Y325470D01*
X441464D01*
X441269Y326951D01*
X440207Y329515D01*
X438517Y331717D01*
X436315Y333407D01*
X433751Y334469D01*
X431270Y334795D01*
D02*
G37*
G36*
X428730Y334795D02*
X426249Y334469D01*
X423685Y333407D01*
X421483Y331717D01*
X419793Y329515D01*
X418731Y326951D01*
X418536Y325470D01*
X428730D01*
Y334795D01*
D02*
G37*
G36*
X107060Y328930D02*
X97790D01*
Y319660D01*
X97908D01*
X100588Y320378D01*
X102992Y321766D01*
X104954Y323728D01*
X106342Y326132D01*
X107060Y328812D01*
Y328930D01*
D02*
G37*
G36*
X95250D02*
X85980D01*
Y328812D01*
X86698Y326132D01*
X88086Y323728D01*
X90048Y321766D01*
X92452Y320378D01*
X95132Y319660D01*
X95250D01*
Y328930D01*
D02*
G37*
G36*
X441464Y322930D02*
X431270D01*
Y313605D01*
X433751Y313931D01*
X436315Y314993D01*
X438517Y316683D01*
X440207Y318885D01*
X441269Y321449D01*
X441464Y322930D01*
D02*
G37*
G36*
X428730D02*
X418536D01*
X418731Y321449D01*
X419793Y318885D01*
X421483Y316683D01*
X423685Y314993D01*
X426249Y313931D01*
X428730Y313605D01*
Y322930D01*
D02*
G37*
G36*
X394970Y302106D02*
Y295910D01*
X401166D01*
X400726Y297550D01*
X399734Y299270D01*
X398330Y300674D01*
X396610Y301666D01*
X394970Y302106D01*
D02*
G37*
G36*
X401166Y293370D02*
X394970D01*
Y287174D01*
X396610Y287614D01*
X398330Y288606D01*
X399734Y290010D01*
X400726Y291730D01*
X401166Y293370D01*
D02*
G37*
G36*
X191888Y228980D02*
X191770D01*
Y219710D01*
X201040D01*
Y219828D01*
X200322Y222508D01*
X198934Y224912D01*
X196972Y226874D01*
X194568Y228262D01*
X191888Y228980D01*
D02*
G37*
G36*
X189230D02*
X189112D01*
X186432Y228262D01*
X184028Y226874D01*
X182066Y224912D01*
X180678Y222508D01*
X179960Y219828D01*
Y219710D01*
X189230D01*
Y228980D01*
D02*
G37*
G36*
X201040Y217170D02*
X191770D01*
Y207900D01*
X191888D01*
X194568Y208618D01*
X196972Y210006D01*
X198934Y211968D01*
X200322Y214372D01*
X201040Y217052D01*
Y217170D01*
D02*
G37*
G36*
X189230D02*
X179960D01*
Y217052D01*
X180678Y214372D01*
X182066Y211968D01*
X184028Y210006D01*
X186432Y208618D01*
X189112Y207900D01*
X189230D01*
Y217170D01*
D02*
G37*
G36*
X25246Y212090D02*
X19050D01*
Y205894D01*
X20690Y206334D01*
X22410Y207327D01*
X23814Y208730D01*
X24806Y210450D01*
X25246Y212090D01*
D02*
G37*
G36*
X16510D02*
X10314D01*
X10754Y210450D01*
X11746Y208730D01*
X13150Y207327D01*
X14870Y206334D01*
X16510Y205894D01*
Y212090D01*
D02*
G37*
G36*
X119947Y211369D02*
X113751D01*
Y205173D01*
X115391Y205613D01*
X117111Y206605D01*
X118515Y208009D01*
X119507Y209729D01*
X119947Y211369D01*
D02*
G37*
G36*
X511810Y197966D02*
X510170Y197526D01*
X508450Y196534D01*
X507047Y195130D01*
X506054Y193410D01*
X505614Y191770D01*
X511810D01*
Y197966D01*
D02*
G37*
G36*
X463550D02*
X461910Y197526D01*
X460190Y196534D01*
X458787Y195130D01*
X457794Y193410D01*
X457354Y191770D01*
X463550D01*
Y197966D01*
D02*
G37*
G36*
X311310Y185426D02*
Y179230D01*
X317506D01*
X317066Y180870D01*
X316073Y182590D01*
X314670Y183993D01*
X312950Y184986D01*
X311310Y185426D01*
D02*
G37*
G36*
X308770D02*
X307130Y184986D01*
X305410Y183993D01*
X304007Y182590D01*
X303014Y180870D01*
X302574Y179230D01*
X308770D01*
Y185426D01*
D02*
G37*
G36*
X389890Y182726D02*
Y176530D01*
X396086D01*
X395646Y178170D01*
X394654Y179890D01*
X393250Y181294D01*
X391530Y182286D01*
X389890Y182726D01*
D02*
G37*
G36*
X387350D02*
X385710Y182286D01*
X383990Y181294D01*
X382587Y179890D01*
X381594Y178170D01*
X381154Y176530D01*
X387350D01*
Y182726D01*
D02*
G37*
G36*
X317506Y176690D02*
X311310D01*
Y170494D01*
X312950Y170934D01*
X314670Y171926D01*
X316073Y173330D01*
X317066Y175050D01*
X317506Y176690D01*
D02*
G37*
G36*
X308770D02*
X302574D01*
X303014Y175050D01*
X304007Y173330D01*
X305410Y171926D01*
X307130Y170934D01*
X308770Y170494D01*
Y176690D01*
D02*
G37*
G36*
X396086Y173990D02*
X389890D01*
Y167794D01*
X391530Y168234D01*
X393250Y169226D01*
X394654Y170630D01*
X395646Y172350D01*
X396086Y173990D01*
D02*
G37*
G36*
X387350D02*
X381154D01*
X381594Y172350D01*
X382587Y170630D01*
X383990Y169226D01*
X385710Y168234D01*
X387350Y167794D01*
Y173990D01*
D02*
G37*
%LPD*%
D18*
X213795Y220545D02*
X215900Y218440D01*
X469900Y175260D02*
X522851D01*
X525780Y178189D01*
X426720Y251460D02*
X515620D01*
X416560Y228600D02*
Y294640D01*
X515620Y251460D02*
X525780Y241300D01*
X243840Y238760D02*
Y243840D01*
X416560Y294640D02*
X424180D01*
X525780Y178189D02*
Y241300D01*
X243840Y220980D02*
Y238760D01*
X424180Y294640D02*
X430000Y300460D01*
X324960Y177960D02*
X325120Y177800D01*
X434340Y182880D02*
X441960Y190500D01*
X17780Y167640D02*
X25400Y160020D01*
X17780Y231140D02*
X99060D01*
X25400Y160020D02*
X190500D01*
Y218440D01*
X7620Y241300D02*
Y373380D01*
X122700Y341140D02*
Y427500D01*
X490220Y190500D02*
Y228600D01*
X7620Y241300D02*
X17780Y231140D01*
X112481Y212639D02*
X118282Y218440D01*
X15240Y381000D02*
X50800D01*
X325120Y220980D02*
X332740Y228600D01*
X490220Y190500D02*
X513080D01*
X96780Y330460D02*
X112020D01*
X17780Y167640D02*
Y213360D01*
X314960Y43180D02*
X325120Y53340D01*
X441960Y190500D02*
X464820D01*
X96520Y330200D02*
X96780Y330460D01*
X396240Y182880D02*
X434340D01*
X430000Y300460D02*
Y324200D01*
X464820Y190500D02*
X490220D01*
X118282Y218440D02*
X190500D01*
X314960Y15240D02*
Y43180D01*
X7620Y373380D02*
X15240Y381000D01*
X388620Y175260D02*
X396240Y182880D01*
X310040Y177960D02*
X324960D01*
X112020Y330460D02*
X122700Y341140D01*
X325120Y177800D02*
Y220980D01*
X326100Y427500D02*
Y440980D01*
X322580Y444500D02*
X326100Y440980D01*
X122700Y441571D02*
X125629Y444500D01*
X122700Y427500D02*
Y441571D01*
X190500Y427500D02*
Y444500D01*
X125629D02*
X190500D01*
X256540D02*
X258300Y442740D01*
Y427500D02*
Y442740D01*
X190500Y444500D02*
X256540D01*
X322580D01*
X430000Y324200D02*
Y349600D01*
X99060Y180340D02*
Y231140D01*
Y180340D02*
X104140Y175260D01*
X119380D01*
X106324Y230947D02*
X115883D01*
X236220Y251460D02*
X243840Y243840D01*
X106131Y231140D02*
X106324Y230947D01*
X115883D02*
X116840Y229990D01*
X99060Y231140D02*
X106131D01*
X139700Y315349D02*
Y360680D01*
X170180Y259080D02*
X177800Y251460D01*
X139700Y315349D02*
X145169Y309880D01*
X177800Y251460D02*
X236220D01*
X332740Y228600D02*
X416560D01*
X325120Y160020D02*
Y177800D01*
X322580Y444500D02*
X373380D01*
X325120Y53340D02*
Y160020D01*
X384849Y349600D02*
X430000D01*
X353060Y327660D02*
X368300D01*
X170180Y294640D02*
Y306951D01*
X381000Y243840D02*
Y274320D01*
X375920Y238760D02*
X381000Y243840D01*
X190500Y160020D02*
X325120D01*
X381000Y274320D02*
Y325120D01*
X368300Y327660D02*
Y426720D01*
X347980Y332740D02*
Y360680D01*
X368300Y327660D02*
X378460D01*
X248920Y367911D02*
X251849Y370840D01*
X378460Y327660D02*
X381000Y325120D01*
X170180Y294640D02*
X182070D01*
X381920Y352529D02*
Y435960D01*
X173109Y283130D02*
X249721D01*
X145169Y309880D02*
X167251D01*
X170180Y306951D01*
X373380Y444500D02*
X381920Y435960D01*
X248920Y355600D02*
Y367911D01*
X170180Y259080D02*
Y294640D01*
X337820Y370840D02*
X347980Y360680D01*
X381920Y352529D02*
X384849Y349600D01*
X347980Y332740D02*
X353060Y327660D01*
X416560Y228600D02*
X490220D01*
X393700Y294640D02*
X416560D01*
X251849Y370840D02*
X337820D01*
X243840Y238760D02*
X375920D01*
X249721Y283130D02*
X259080Y292489D01*
Y320040D01*
X252650Y326470D02*
X259080Y320040D01*
X218692Y326470D02*
X252650D01*
X214873Y322740D02*
X214962D01*
X210820Y320040D02*
X212173D01*
X214962Y322740D02*
X218692Y326470D01*
X212173Y320040D02*
X214873Y322740D01*
D19*
X78740Y15240D02*
Y91440D01*
X58420Y111760D02*
X78740Y91440D01*
X12700Y111760D02*
X58420D01*
X467360Y15240D02*
X468508Y16388D01*
Y34168D01*
X474980Y40640D01*
X535162D02*
X541020Y46498D01*
X474980Y40640D02*
X535162D01*
Y121920D02*
X541020Y116062D01*
X518160Y121920D02*
X535162D01*
X541020Y46498D02*
Y116062D01*
X441960Y15240D02*
Y83820D01*
X452120Y93980D01*
X511489D02*
X517347Y88122D01*
Y69393D02*
Y88122D01*
Y69393D02*
X518160Y68580D01*
X452120Y93980D02*
X511489D01*
X228600Y15240D02*
X289560D01*
X215900Y27940D02*
X228600Y15240D01*
X215900Y27940D02*
Y58420D01*
Y111760D01*
X69496Y330200D02*
X71120D01*
X57980Y318684D02*
X69496Y330200D01*
X31664Y318684D02*
X57980D01*
X30480Y317500D02*
X31664Y318684D01*
X210820Y241300D02*
X215900Y236220D01*
Y218440D02*
Y236220D01*
X146542Y292100D02*
X152400Y286242D01*
Y247158D02*
X158258Y241300D01*
X30480Y292100D02*
X146542D01*
X158258Y241300D02*
X210820D01*
X152400Y247158D02*
Y286242D01*
D20*
X190840Y312463D02*
Y312760D01*
Y293288D02*
Y302217D01*
X189350Y303707D02*
Y310973D01*
X190840Y312760D02*
X198120Y320040D01*
X189350Y310973D02*
X190840Y312463D01*
X189350Y303707D02*
X190840Y302217D01*
Y293288D02*
X192328Y291800D01*
X246080D01*
X199608Y381000D02*
X287020D01*
X261620Y347980D02*
Y355600D01*
X180340Y335280D02*
Y394752D01*
X181828Y396240D02*
X269240D01*
X180340Y394752D02*
X181828Y396240D01*
X251460Y403010D02*
X356450D01*
X360300Y345440D02*
X360680Y345820D01*
Y398780D01*
X356450Y403010D02*
X360680Y398780D01*
X228600Y312420D02*
X236380Y320200D01*
X248920Y294640D02*
Y314784D01*
X240700Y301660D02*
Y313430D01*
X243504Y320200D02*
X248920Y314784D01*
X236380Y320200D02*
X243504D01*
X246080Y291800D02*
X248920Y294640D01*
X237610Y298570D02*
X240700Y301660D01*
X205357Y300400D02*
X207187Y298570D01*
X237610D01*
X259080Y332740D02*
X265350Y326470D01*
Y283130D02*
Y326470D01*
X259080Y276860D02*
X265350Y283130D01*
X229863Y262458D02*
Y268562D01*
X229201Y269224D02*
X229863Y268562D01*
Y262458D02*
X231161Y261160D01*
Y260568D02*
Y261160D01*
X232649Y259080D02*
X292792D01*
X231161Y260568D02*
X232649Y259080D01*
X198120Y307340D02*
X205060Y300400D01*
X205357D01*
X295332Y256540D02*
X296010D01*
X292792Y259080D02*
X295332Y256540D01*
X187960Y346928D02*
Y387132D01*
X189448Y388620D01*
X279400D01*
X180340Y269240D02*
Y275372D01*
X181828Y276860D02*
X259080D01*
X180340Y275372D02*
X181828Y276860D01*
X259080Y345440D02*
X261620Y347980D01*
X210820Y345440D02*
X259080D01*
X180340Y335280D02*
X182880Y332740D01*
X198120D01*
Y358140D02*
Y379512D01*
X199608Y381000D01*
X189448Y345440D02*
X198120D01*
X187960Y346928D02*
X189448Y345440D01*
X210820Y332740D02*
X259080D01*
X472440Y205740D02*
X477520Y200660D01*
X340360D02*
X345440Y205740D01*
X472440D01*
X340360Y15240D02*
Y200660D01*
X370840Y195580D02*
X429260D01*
X365760Y15240D02*
Y190500D01*
X370840Y195580D01*
D21*
X12700Y111760D02*
D03*
X215900D02*
D03*
Y58420D02*
D03*
X12700D02*
D03*
X264160Y68580D02*
D03*
X302260D02*
D03*
X264160Y121920D02*
D03*
X302260D02*
D03*
D22*
X518160Y68580D02*
D03*
X467360D02*
D03*
X416560D02*
D03*
X518160Y121920D02*
D03*
X467360D02*
D03*
X416560D02*
D03*
D23*
X97300Y427500D02*
D03*
X122700D02*
D03*
X190500D02*
D03*
X165100D02*
D03*
X258300D02*
D03*
X232900D02*
D03*
X326100D02*
D03*
X300700D02*
D03*
X96520Y330200D02*
D03*
X71120D02*
D03*
X215900Y218440D02*
D03*
X190500D02*
D03*
D24*
X492760Y15240D02*
D03*
X518160D02*
D03*
X467360D02*
D03*
X441960D02*
D03*
X289560D02*
D03*
X314960D02*
D03*
X365760D02*
D03*
X340360D02*
D03*
X416560D02*
D03*
X391160D02*
D03*
X78740D02*
D03*
X53340D02*
D03*
D25*
X30480Y266700D02*
D03*
Y292100D02*
D03*
Y317500D02*
D03*
D26*
X430000Y375000D02*
D03*
Y425800D02*
D03*
Y400400D02*
D03*
Y349600D02*
D03*
Y324200D02*
D03*
D27*
X210820Y307340D02*
D03*
X198120D02*
D03*
Y320040D02*
D03*
X210820D02*
D03*
X198120Y332740D02*
D03*
X210820D02*
D03*
X198120Y345440D02*
D03*
X210820D02*
D03*
X198120Y358140D02*
D03*
X210820D02*
D03*
X426720Y251460D02*
D03*
X182070Y294640D02*
D03*
X368300Y426720D02*
D03*
X248920Y355600D02*
D03*
X381000Y274320D02*
D03*
X393700Y294640D02*
D03*
X243840Y220980D02*
D03*
X116840Y229990D02*
D03*
X139700Y360680D02*
D03*
X310040Y177960D02*
D03*
X513080Y190500D02*
D03*
X464820D02*
D03*
X388620Y175260D02*
D03*
X469900D02*
D03*
X112481Y212639D02*
D03*
X50800Y381000D02*
D03*
X119380Y175260D02*
D03*
X17780Y231140D02*
D03*
Y213360D02*
D03*
D28*
X360680Y304800D02*
D03*
X287020Y381000D02*
D03*
X261620Y355600D02*
D03*
X251460Y403010D02*
D03*
X360300Y345440D02*
D03*
X228600Y312420D02*
D03*
X240700Y313430D02*
D03*
X229201Y269224D02*
D03*
X180340Y269240D02*
D03*
X269240Y396240D02*
D03*
X279400Y388620D02*
D03*
X477520Y200660D02*
D03*
X429260Y195580D02*
D03*
X296010Y256540D02*
D03*
M02*
