G04*
G04 #@! TF.GenerationSoftware,Altium Limited,Altium Designer,23.5.1 (21)*
G04*
G04 Layer_Color=8388736*
%FSLAX44Y44*%
%MOMM*%
G71*
G04*
G04 #@! TF.SameCoordinates,1C69412E-B372-4F46-9B7E-F97621244732*
G04*
G04*
G04 #@! TF.FilePolarity,Negative*
G04*
G01*
G75*
%ADD11C,2.0032*%
%ADD12O,2.2032X3.2032*%
%ADD13C,1.8032*%
%ADD14O,1.8032X2.0032*%
%ADD15O,2.7032X2.2032*%
%ADD16O,2.0032X1.8032*%
%ADD17C,1.2032*%
D11*
X12700Y111760D02*
D03*
X215900D02*
D03*
Y58420D02*
D03*
X12700D02*
D03*
X264160Y68580D02*
D03*
X302260D02*
D03*
X264160Y121920D02*
D03*
X302260D02*
D03*
D12*
X518160Y68580D02*
D03*
X467360D02*
D03*
X416560D02*
D03*
X518160Y121920D02*
D03*
X467360D02*
D03*
X416560D02*
D03*
D13*
X97300Y427500D02*
D03*
X122700D02*
D03*
X190500D02*
D03*
X165100D02*
D03*
X258300D02*
D03*
X232900D02*
D03*
X326100D02*
D03*
X300700D02*
D03*
X96520Y330200D02*
D03*
X71120D02*
D03*
X215900Y218440D02*
D03*
X190500D02*
D03*
D14*
X492760Y15240D02*
D03*
X518160D02*
D03*
X467360D02*
D03*
X441960D02*
D03*
X289560D02*
D03*
X314960D02*
D03*
X365760D02*
D03*
X340360D02*
D03*
X416560D02*
D03*
X391160D02*
D03*
X78740D02*
D03*
X53340D02*
D03*
D15*
X30480Y266700D02*
D03*
Y292100D02*
D03*
Y317500D02*
D03*
D16*
X430000Y375000D02*
D03*
Y425800D02*
D03*
Y400400D02*
D03*
Y349600D02*
D03*
Y324200D02*
D03*
D17*
X210820Y307340D02*
D03*
X198120D02*
D03*
Y320040D02*
D03*
X210820D02*
D03*
X198120Y332740D02*
D03*
X210820D02*
D03*
X198120Y345440D02*
D03*
X210820D02*
D03*
X198120Y358140D02*
D03*
X210820D02*
D03*
M02*
