M48
;Layer_Color=9474304
;FILE_FORMAT=4:4
METRIC
;TYPE=PLATED
T1F00S00C0.3000
T2F00S00C0.5000
T3F00S00C0.6000
T4F00S00C0.8000
T5F00S00C1.0000
T6F00S00C1.2000
T7F00S00C1.5000
%
T01
X00429260Y00195580
X00477520Y00200660
X00360680Y00304800
X00360300Y00345440
X00287020Y00381000
X00279400Y00388620
X00269240Y00396240
X00251460Y00403010
X00261620Y00355600
X00240700Y00313430
X00228600Y00312420
X00229201Y00269224
X00180340Y00269240
X00296010Y00256540
T02
X00469900Y00175260
X00464820Y00190500
X00513080
X00426720Y00251460
X00381000Y00274320
X00393700Y00294640
X00388620Y00175260
X00310040Y00177960
X00243840Y00220980
X00182070Y00294640
X00139700Y00360680
X00050800Y00381000
X00116840Y00229990
X00112481Y00212639
X00119380Y00175260
X00248920Y00355600
X00368300Y00426720
X00017780Y00231140
Y00213360
T03
X00198120Y00307340
X00210820
Y00320040
X00198120
Y00332740
X00210820
Y00345440
X00198120
Y00358140
X00210820
T04
X00071120Y00330200
X00096520
X00097300Y00427500
X00122700
X00165100
X00190500
X00232900
X00258300
X00300700
X00326100
X00215900Y00218440
X00190500
T05
X00012700Y00058420
X00053340Y00015240
X00078740
X00215900Y00058420
X00289560Y00015240
X00314960
X00340360
X00365760
X00391160
X00416560
X00441960
X00467360
X00492760
X00518160
X00430000Y00324200
Y00349600
Y00375000
Y00400400
Y00425800
X00302260Y00121920
X00264160
Y00068580
X00302260
X00215900Y00111760
X00012700
T06
X00030480Y00266700
Y00292100
Y00317500
T07
X00416560Y00068580
X00467360
X00518160
Y00121920
X00467360
X00416560
M30
