G04*
G04 #@! TF.GenerationSoftware,Altium Limited,Altium Designer,22.7.1 (60)*
G04*
G04 Layer_Physical_Order=1*
G04 Layer_Color=255*
%FSLAX44Y44*%
%MOMM*%
G71*
G04*
G04 #@! TF.SameCoordinates,DCD1F4FC-07E0-4B9C-93DB-C222A076345C*
G04*
G04*
G04 #@! TF.FilePolarity,Positive*
G04*
G01*
G75*
%ADD14R,3.2000X1.6000*%
%ADD15R,2.0000X2.5000*%
%ADD16R,2.5000X2.0000*%
%ADD17R,1.0000X1.2500*%
%ADD30C,1.0000*%
%ADD31C,7.0000*%
%ADD32O,2.4000X2.8000*%
G04:AMPARAMS|DCode=33|XSize=1.6mm|YSize=1.6mm|CornerRadius=0.4mm|HoleSize=0mm|Usage=FLASHONLY|Rotation=0.000|XOffset=0mm|YOffset=0mm|HoleType=Round|Shape=RoundedRectangle|*
%AMROUNDEDRECTD33*
21,1,1.6000,0.8000,0,0,0.0*
21,1,0.8000,1.6000,0,0,0.0*
1,1,0.8000,0.4000,-0.4000*
1,1,0.8000,-0.4000,-0.4000*
1,1,0.8000,-0.4000,0.4000*
1,1,0.8000,0.4000,0.4000*
%
%ADD33ROUNDEDRECTD33*%
%ADD34C,1.6000*%
%ADD35O,1.6000X1.8000*%
%ADD36C,1.4000*%
G04:AMPARAMS|DCode=37|XSize=1.4mm|YSize=1.4mm|CornerRadius=0.35mm|HoleSize=0mm|Usage=FLASHONLY|Rotation=270.000|XOffset=0mm|YOffset=0mm|HoleType=Round|Shape=RoundedRectangle|*
%AMROUNDEDRECTD37*
21,1,1.4000,0.7000,0,0,270.0*
21,1,0.7000,1.4000,0,0,270.0*
1,1,0.7000,-0.3500,-0.3500*
1,1,0.7000,-0.3500,0.3500*
1,1,0.7000,0.3500,0.3500*
1,1,0.7000,0.3500,-0.3500*
%
%ADD37ROUNDEDRECTD37*%
%ADD38O,1.8000X1.6000*%
D14*
X545000Y675000D02*
D03*
Y738500D02*
D03*
X150000Y677500D02*
D03*
Y741000D02*
D03*
X915000Y386500D02*
D03*
Y450000D02*
D03*
X975000Y386500D02*
D03*
Y450000D02*
D03*
D15*
X915000Y312500D02*
D03*
Y261700D02*
D03*
X975000Y312500D02*
D03*
Y261700D02*
D03*
D16*
X572500Y975000D02*
D03*
X623300D02*
D03*
X172500D02*
D03*
X223300D02*
D03*
D17*
X925000Y512500D02*
D03*
X945320D02*
D03*
X925000Y562500D02*
D03*
X945320D02*
D03*
X925000Y612500D02*
D03*
X945320D02*
D03*
X925000Y662500D02*
D03*
X945320D02*
D03*
D30*
X150000Y785000D02*
X172500Y807500D01*
Y862500D01*
X150000Y741000D02*
Y785000D01*
X240000Y872500D02*
X254235Y886735D01*
X271735D02*
X272500Y887500D01*
X254235Y886735D02*
X271735D01*
X240000Y745000D02*
Y872500D01*
X212500Y717500D02*
X240000Y745000D01*
X212500Y677500D02*
Y717500D01*
X642500Y875000D02*
X654235Y886735D01*
X671735D02*
X672500Y887500D01*
X654235Y886735D02*
X671735D01*
X642500Y735000D02*
Y875000D01*
X612500Y705000D02*
X642500Y735000D01*
X612500Y675000D02*
Y705000D01*
X745000Y975000D02*
X822500D01*
X623300D02*
X745000D01*
X842500Y895000D02*
X850000Y887500D01*
X872500D01*
X842500Y895000D02*
Y955000D01*
X822500Y975000D02*
X842500Y955000D01*
X745000Y900000D02*
X756735Y888265D01*
X745000Y900000D02*
Y975000D01*
X756735Y888265D02*
X771735D01*
X772500Y887500D01*
X345000Y975000D02*
X472500D01*
X223300D02*
X345000D01*
X472500Y887500D02*
X473265Y888265D01*
X487407D01*
X492500Y893358D02*
Y955000D01*
X487407Y888265D02*
X492500Y893358D01*
X472500Y975000D02*
X492500Y955000D01*
X345000Y900000D02*
Y975000D01*
Y900000D02*
X356735Y888265D01*
X371735D01*
X372500Y887500D01*
X572500Y975000D02*
X572500Y975000D01*
X572500Y912500D02*
Y975000D01*
X172500Y912500D02*
Y975000D01*
X172500Y912500D02*
X172500Y912500D01*
X572500Y807500D02*
Y862500D01*
X545000Y780000D02*
X572500Y807500D01*
X545000Y738500D02*
Y780000D01*
Y675000D02*
X612500D01*
X150000Y677500D02*
X212500D01*
X237500D02*
X262500D01*
X237500D02*
X237500Y275000D01*
X212500Y250000D02*
X237500Y275000D01*
X212500Y50000D02*
Y250000D01*
X454235Y911735D02*
X471735D01*
X472500Y912500D01*
X445000Y902500D02*
X454235Y911735D01*
X445000Y530000D02*
Y902500D01*
Y530000D02*
X524920Y450080D01*
Y50000D02*
Y450080D01*
X915000Y261700D02*
X975000D01*
X915000Y135000D02*
X925000Y125000D01*
X950000D01*
X915000Y135000D02*
Y261700D01*
X975000Y312500D02*
Y386500D01*
X915000Y312500D02*
Y386500D01*
X945320Y512500D02*
Y562500D01*
Y485320D02*
Y512500D01*
X915000Y450000D02*
Y470000D01*
X922500Y477500D01*
X937500D01*
X945320Y485320D01*
X975000Y612500D02*
Y656642D01*
Y450000D02*
Y612500D01*
X945320D02*
X975000D01*
X969142Y662500D02*
X975000Y656642D01*
X945320Y662500D02*
X969142D01*
X762500D02*
X925000D01*
X550320Y450320D02*
X762500Y662500D01*
X550320Y50000D02*
Y450320D01*
X601120Y426120D02*
X787500Y612500D01*
X925000D01*
X601120Y50000D02*
Y426120D01*
X812500Y562500D02*
X925000D01*
X626520Y376520D02*
X812500Y562500D01*
X626520Y50000D02*
Y376520D01*
X677320Y352320D02*
X837500Y512500D01*
X925000D01*
X677320Y50000D02*
Y352320D01*
X575000Y12500D02*
X650000D01*
X457500D02*
X575000D01*
X575720Y13220D02*
Y50000D01*
X575000Y12500D02*
X575720Y13220D01*
X650000Y12500D02*
X812500D01*
X651920Y14420D02*
Y50000D01*
X650000Y12500D02*
X651920Y14420D01*
X899600Y99600D02*
X950000D01*
X812500Y12500D02*
X899600Y99600D01*
X448720Y21280D02*
X457500Y12500D01*
X448720Y21280D02*
Y50000D01*
D31*
X950000D02*
D03*
Y950000D02*
D03*
X50000D02*
D03*
Y50000D02*
D03*
D32*
X286000Y747500D02*
D03*
X189000D02*
D03*
X686000Y745000D02*
D03*
X589000D02*
D03*
D33*
X212500Y677500D02*
D03*
X612500Y675000D02*
D03*
D34*
X262500Y677500D02*
D03*
X237500D02*
D03*
X662500Y675000D02*
D03*
X637500D02*
D03*
D35*
X651920Y50000D02*
D03*
X677320D02*
D03*
X626520D02*
D03*
X601120D02*
D03*
X448720D02*
D03*
X474120D02*
D03*
X524920D02*
D03*
X499520D02*
D03*
X575720D02*
D03*
X550320D02*
D03*
X212500D02*
D03*
X237900D02*
D03*
D36*
X372500Y862500D02*
D03*
X312500D02*
D03*
Y887500D02*
D03*
X372500D02*
D03*
Y912500D02*
D03*
X172500Y862500D02*
D03*
X112500D02*
D03*
Y887500D02*
D03*
X172500D02*
D03*
Y912500D02*
D03*
X272500Y862500D02*
D03*
X212500D02*
D03*
Y887500D02*
D03*
X272500D02*
D03*
Y912500D02*
D03*
X672500Y862500D02*
D03*
X612500D02*
D03*
Y887500D02*
D03*
X672500D02*
D03*
Y912500D02*
D03*
X572500Y862500D02*
D03*
X512500D02*
D03*
Y887500D02*
D03*
X572500D02*
D03*
Y912500D02*
D03*
X772500Y862500D02*
D03*
X712500D02*
D03*
Y887500D02*
D03*
X772500D02*
D03*
Y912500D02*
D03*
X872500Y862500D02*
D03*
X812500D02*
D03*
Y887500D02*
D03*
X872500D02*
D03*
Y912500D02*
D03*
X472500Y862500D02*
D03*
X412500D02*
D03*
Y887500D02*
D03*
X472500D02*
D03*
Y912500D02*
D03*
D37*
X312500D02*
D03*
X112500D02*
D03*
X212500D02*
D03*
X612500D02*
D03*
X512500D02*
D03*
X712500D02*
D03*
X812500D02*
D03*
X412500D02*
D03*
D38*
X950000Y201200D02*
D03*
Y175800D02*
D03*
Y125000D02*
D03*
Y99600D02*
D03*
Y150400D02*
D03*
M02*
