G04*
G04 #@! TF.GenerationSoftware,Altium Limited,Altium Designer,22.7.1 (60)*
G04*
G04 Layer_Color=8388736*
%FSLAX44Y44*%
%MOMM*%
G71*
G04*
G04 #@! TF.SameCoordinates,DCD1F4FC-07E0-4B9C-93DB-C222A076345C*
G04*
G04*
G04 #@! TF.FilePolarity,Negative*
G04*
G01*
G75*
%ADD18R,3.4032X1.8032*%
%ADD19R,2.2032X2.7032*%
%ADD20R,2.7032X2.2032*%
%ADD21R,1.2032X1.4532*%
%ADD22C,7.2032*%
%ADD23O,2.6032X3.0032*%
G04:AMPARAMS|DCode=24|XSize=1.8032mm|YSize=1.8032mm|CornerRadius=0.5016mm|HoleSize=0mm|Usage=FLASHONLY|Rotation=0.000|XOffset=0mm|YOffset=0mm|HoleType=Round|Shape=RoundedRectangle|*
%AMROUNDEDRECTD24*
21,1,1.8032,0.8000,0,0,0.0*
21,1,0.8000,1.8032,0,0,0.0*
1,1,1.0032,0.4000,-0.4000*
1,1,1.0032,-0.4000,-0.4000*
1,1,1.0032,-0.4000,0.4000*
1,1,1.0032,0.4000,0.4000*
%
%ADD24ROUNDEDRECTD24*%
%ADD25C,1.8032*%
%ADD26O,1.8032X2.0032*%
%ADD27C,1.6032*%
G04:AMPARAMS|DCode=28|XSize=1.6032mm|YSize=1.6032mm|CornerRadius=0.4516mm|HoleSize=0mm|Usage=FLASHONLY|Rotation=270.000|XOffset=0mm|YOffset=0mm|HoleType=Round|Shape=RoundedRectangle|*
%AMROUNDEDRECTD28*
21,1,1.6032,0.7000,0,0,270.0*
21,1,0.7000,1.6032,0,0,270.0*
1,1,0.9032,-0.3500,-0.3500*
1,1,0.9032,-0.3500,0.3500*
1,1,0.9032,0.3500,0.3500*
1,1,0.9032,0.3500,-0.3500*
%
%ADD28ROUNDEDRECTD28*%
%ADD29O,2.0032X1.8032*%
D18*
X545000Y675000D02*
D03*
Y738500D02*
D03*
X150000Y677500D02*
D03*
Y741000D02*
D03*
X915000Y386500D02*
D03*
Y450000D02*
D03*
X975000Y386500D02*
D03*
Y450000D02*
D03*
D19*
X915000Y312500D02*
D03*
Y261700D02*
D03*
X975000Y312500D02*
D03*
Y261700D02*
D03*
D20*
X572500Y975000D02*
D03*
X623300D02*
D03*
X172500D02*
D03*
X223300D02*
D03*
D21*
X925000Y512500D02*
D03*
X945320D02*
D03*
X925000Y562500D02*
D03*
X945320D02*
D03*
X925000Y612500D02*
D03*
X945320D02*
D03*
X925000Y662500D02*
D03*
X945320D02*
D03*
D22*
X950000Y50000D02*
D03*
Y950000D02*
D03*
X50000D02*
D03*
Y50000D02*
D03*
D23*
X286000Y747500D02*
D03*
X189000D02*
D03*
X686000Y745000D02*
D03*
X589000D02*
D03*
D24*
X212500Y677500D02*
D03*
X612500Y675000D02*
D03*
D25*
X262500Y677500D02*
D03*
X237500D02*
D03*
X662500Y675000D02*
D03*
X637500D02*
D03*
D26*
X651920Y50000D02*
D03*
X677320D02*
D03*
X626520D02*
D03*
X601120D02*
D03*
X448720D02*
D03*
X474120D02*
D03*
X524920D02*
D03*
X499520D02*
D03*
X575720D02*
D03*
X550320D02*
D03*
X212500D02*
D03*
X237900D02*
D03*
D27*
X372500Y862500D02*
D03*
X312500D02*
D03*
Y887500D02*
D03*
X372500D02*
D03*
Y912500D02*
D03*
X172500Y862500D02*
D03*
X112500D02*
D03*
Y887500D02*
D03*
X172500D02*
D03*
Y912500D02*
D03*
X272500Y862500D02*
D03*
X212500D02*
D03*
Y887500D02*
D03*
X272500D02*
D03*
Y912500D02*
D03*
X672500Y862500D02*
D03*
X612500D02*
D03*
Y887500D02*
D03*
X672500D02*
D03*
Y912500D02*
D03*
X572500Y862500D02*
D03*
X512500D02*
D03*
Y887500D02*
D03*
X572500D02*
D03*
Y912500D02*
D03*
X772500Y862500D02*
D03*
X712500D02*
D03*
Y887500D02*
D03*
X772500D02*
D03*
Y912500D02*
D03*
X872500Y862500D02*
D03*
X812500D02*
D03*
Y887500D02*
D03*
X872500D02*
D03*
Y912500D02*
D03*
X472500Y862500D02*
D03*
X412500D02*
D03*
Y887500D02*
D03*
X472500D02*
D03*
Y912500D02*
D03*
D28*
X312500D02*
D03*
X112500D02*
D03*
X212500D02*
D03*
X612500D02*
D03*
X512500D02*
D03*
X712500D02*
D03*
X812500D02*
D03*
X412500D02*
D03*
D29*
X950000Y201200D02*
D03*
Y175800D02*
D03*
Y125000D02*
D03*
Y99600D02*
D03*
Y150400D02*
D03*
M02*
