G04*
G04 #@! TF.GenerationSoftware,Altium Limited,Altium Designer,22.7.1 (60)*
G04*
G04 Layer_Color=65535*
%FSLAX44Y44*%
%MOMM*%
G71*
G04*
G04 #@! TF.SameCoordinates,DCD1F4FC-07E0-4B9C-93DB-C222A076345C*
G04*
G04*
G04 #@! TF.FilePolarity,Positive*
G04*
G01*
G75*
%ADD10C,0.2500*%
%ADD11C,0.2000*%
%ADD12C,0.3000*%
%ADD13C,0.2540*%
D10*
X305000Y927500D02*
G03*
X302500Y925000I0J-2500D01*
G01*
X382500D02*
G03*
X380000Y927500I-2500J0D01*
G01*
X302500Y850000D02*
G03*
X305000Y847500I2500J0D01*
G01*
X380000D02*
G03*
X382500Y850000I0J2500D01*
G01*
X105000Y927500D02*
G03*
X102500Y925000I0J-2500D01*
G01*
X182500D02*
G03*
X180000Y927500I-2500J0D01*
G01*
X102500Y850000D02*
G03*
X105000Y847500I2500J0D01*
G01*
X180000D02*
G03*
X182500Y850000I0J2500D01*
G01*
X205000Y927500D02*
G03*
X202500Y925000I0J-2500D01*
G01*
X282500D02*
G03*
X280000Y927500I-2500J0D01*
G01*
X202500Y850000D02*
G03*
X205000Y847500I2500J0D01*
G01*
X280000D02*
G03*
X282500Y850000I0J2500D01*
G01*
X605000Y927500D02*
G03*
X602500Y925000I0J-2500D01*
G01*
X682500D02*
G03*
X680000Y927500I-2500J0D01*
G01*
X602500Y850000D02*
G03*
X605000Y847500I2500J0D01*
G01*
X680000D02*
G03*
X682500Y850000I0J2500D01*
G01*
X505000Y927500D02*
G03*
X502500Y925000I0J-2500D01*
G01*
X582500D02*
G03*
X580000Y927500I-2500J0D01*
G01*
X502500Y850000D02*
G03*
X505000Y847500I2500J0D01*
G01*
X580000D02*
G03*
X582500Y850000I0J2500D01*
G01*
X705000Y927500D02*
G03*
X702500Y925000I0J-2500D01*
G01*
X782500D02*
G03*
X780000Y927500I-2500J0D01*
G01*
X702500Y850000D02*
G03*
X705000Y847500I2500J0D01*
G01*
X780000D02*
G03*
X782500Y850000I0J2500D01*
G01*
X805000Y927500D02*
G03*
X802500Y925000I0J-2500D01*
G01*
X882500D02*
G03*
X880000Y927500I-2500J0D01*
G01*
X802500Y850000D02*
G03*
X805000Y847500I2500J0D01*
G01*
X880000D02*
G03*
X882500Y850000I0J2500D01*
G01*
X405000Y927500D02*
G03*
X402500Y925000I0J-2500D01*
G01*
X482500D02*
G03*
X480000Y927500I-2500J0D01*
G01*
X402500Y850000D02*
G03*
X405000Y847500I2500J0D01*
G01*
X480000D02*
G03*
X482500Y850000I0J2500D01*
G01*
X286000Y699000D02*
Y729000D01*
Y766000D02*
Y796000D01*
X189000D02*
X286000D01*
X189000Y766000D02*
Y796000D01*
Y699000D02*
Y729000D01*
Y699000D02*
X286000D01*
X686000Y696500D02*
Y726500D01*
Y763500D02*
Y793500D01*
X589000D02*
X686000D01*
X589000Y763500D02*
Y793500D01*
Y696500D02*
Y726500D01*
Y696500D02*
X686000D01*
X305000Y927500D02*
X380000D01*
X305000Y847500D02*
X380000D01*
X382500Y850000D02*
Y925000D01*
X302500Y850000D02*
Y925000D01*
X105000Y927500D02*
X180000D01*
X105000Y847500D02*
X180000D01*
X182500Y850000D02*
Y925000D01*
X102500Y850000D02*
Y925000D01*
X205000Y927500D02*
X280000D01*
X205000Y847500D02*
X280000D01*
X282500Y850000D02*
Y925000D01*
X202500Y850000D02*
Y925000D01*
X605000Y927500D02*
X680000D01*
X605000Y847500D02*
X680000D01*
X682500Y850000D02*
Y925000D01*
X602500Y850000D02*
Y925000D01*
X505000Y927500D02*
X580000D01*
X505000Y847500D02*
X580000D01*
X582500Y850000D02*
Y925000D01*
X502500Y850000D02*
Y925000D01*
X705000Y927500D02*
X780000D01*
X705000Y847500D02*
X780000D01*
X782500Y850000D02*
Y925000D01*
X702500Y850000D02*
Y925000D01*
X805000Y927500D02*
X880000D01*
X805000Y847500D02*
X880000D01*
X882500Y850000D02*
Y925000D01*
X802500Y850000D02*
Y925000D01*
X405000Y927500D02*
X480000D01*
X405000Y847500D02*
X480000D01*
X482500Y850000D02*
Y925000D01*
X402500Y850000D02*
Y925000D01*
D11*
X560240Y685160D02*
Y728340D01*
X529760Y685160D02*
Y728340D01*
X165240Y687660D02*
Y730840D01*
X134760Y687660D02*
Y730840D01*
X690020Y43650D02*
Y56350D01*
X664620Y50000D02*
Y56350D01*
X658270Y62700D02*
X664620Y56350D01*
X645570Y62700D02*
X658270D01*
X639220Y56350D02*
X645570Y62700D01*
X639220Y43650D02*
Y56350D01*
Y43650D02*
X645570Y37300D01*
X658270D01*
X664620Y43650D01*
Y50000D01*
Y56350D01*
X670970Y62700D01*
X683670D01*
X690020Y56350D01*
Y43650D02*
Y56350D01*
X683670Y37300D02*
X690020Y43650D01*
X670970Y37300D02*
X683670D01*
X664620Y43650D02*
X670970Y37300D01*
X613820Y43650D02*
X620170Y37300D01*
X632870D01*
X639220Y43650D01*
Y56350D01*
X632870Y62700D02*
X639220Y56350D01*
X620170Y62700D02*
X632870D01*
X613820Y56350D02*
X620170Y62700D01*
X613820Y50000D02*
Y56350D01*
Y43650D02*
Y50000D01*
X607470Y37300D02*
X613820Y43650D01*
X594770Y37300D02*
X607470D01*
X588420Y43650D02*
X594770Y37300D01*
X588420Y43650D02*
Y56350D01*
X594770Y62700D01*
X607470D01*
X613820Y56350D01*
Y50000D02*
Y56350D01*
X461420Y50000D02*
Y56350D01*
X455070Y62700D02*
X461420Y56350D01*
X442370Y62700D02*
X455070D01*
X436020Y56350D02*
X442370Y62700D01*
X436020Y43650D02*
Y56350D01*
Y43650D02*
X442370Y37300D01*
X455070D01*
X461420Y43650D01*
Y50000D01*
Y56350D01*
X467770Y62700D01*
X480470D01*
X486820Y56350D01*
Y43650D02*
Y56350D01*
X480470Y37300D02*
X486820Y43650D01*
X467770Y37300D02*
X480470D01*
X461420Y43650D02*
X467770Y37300D01*
X512220Y43650D02*
X518570Y37300D01*
X531270D01*
X537620Y43650D01*
Y56350D01*
X531270Y62700D02*
X537620Y56350D01*
X518570Y62700D02*
X531270D01*
X512220Y56350D02*
X518570Y62700D01*
X512220Y50000D02*
Y56350D01*
Y43650D02*
Y50000D01*
X505870Y37300D02*
X512220Y43650D01*
X493170Y37300D02*
X505870D01*
X486820Y43650D02*
X493170Y37300D01*
X486820Y43650D02*
Y56350D01*
X493170Y62700D01*
X505870D01*
X512220Y56350D01*
Y50000D02*
Y56350D01*
X563020Y43650D02*
X569370Y37300D01*
X582070D01*
X588420Y43650D01*
Y56350D01*
X582070Y62700D02*
X588420Y56350D01*
X569370Y62700D02*
X582070D01*
X563020Y56350D02*
X569370Y62700D01*
X563020Y50000D02*
Y56350D01*
Y43650D02*
Y50000D01*
X556670Y37300D02*
X563020Y43650D01*
X543970Y37300D02*
X556670D01*
X537620Y43650D02*
X543970Y37300D01*
X537620Y43650D02*
Y56350D01*
X543970Y62700D01*
X556670D01*
X563020Y56350D01*
Y50000D02*
Y56350D01*
X901030Y261700D02*
Y312500D01*
X928970Y261700D02*
Y312500D01*
X901030Y278210D02*
X928970D01*
Y279480D01*
X901030D02*
X928970D01*
X901030Y280750D02*
X928970D01*
X961030Y261700D02*
Y312500D01*
X988970Y261700D02*
Y312500D01*
X961030Y278210D02*
X988970D01*
Y279480D01*
X961030D02*
X988970D01*
X961030Y280750D02*
X988970D01*
X572500Y961030D02*
X623300D01*
X572500Y988970D02*
X623300D01*
X606790Y961030D02*
Y988970D01*
X605520D02*
X606790D01*
X605520Y961030D02*
Y988970D01*
X604250Y961030D02*
Y988970D01*
X172500Y961030D02*
X223300D01*
X172500Y988970D02*
X223300D01*
X206790Y961030D02*
Y988970D01*
X205520D02*
X206790D01*
X205520Y961030D02*
Y988970D01*
X204250Y961030D02*
Y988970D01*
X930240Y396660D02*
Y439840D01*
X899760Y396660D02*
Y439840D01*
X990240Y396660D02*
Y439840D01*
X959760Y396660D02*
Y439840D01*
X225200Y50000D02*
Y56350D01*
X218850Y62700D02*
X225200Y56350D01*
X206150Y62700D02*
X218850D01*
X199800Y56350D02*
X206150Y62700D01*
X199800Y43650D02*
Y56350D01*
Y43650D02*
X206150Y37300D01*
X218850D01*
X225200Y43650D01*
Y50000D01*
Y56350D01*
X231550Y62700D01*
X244250D01*
X250600Y56350D01*
Y43650D02*
Y56350D01*
X244250Y37300D02*
X250600Y43650D01*
X231550Y37300D02*
X244250D01*
X225200Y43650D02*
X231550Y37300D01*
X950000Y213900D02*
X981750D01*
X924600D02*
X950000D01*
X924600Y86900D02*
X950000D01*
X924600D02*
Y213900D01*
X981750Y86900D02*
Y213900D01*
X950000Y86900D02*
X981750D01*
X930950D02*
Y213900D01*
X933890Y517580D02*
X935922D01*
X933890Y507420D02*
X935922D01*
Y517580D01*
X933890Y567580D02*
X935922D01*
X933890Y557420D02*
X935922D01*
Y567580D01*
X933890Y617580D02*
X935922D01*
X933890Y607420D02*
X935922D01*
Y617580D01*
X933890Y667580D02*
X935922D01*
X933890Y657420D02*
X935922D01*
Y667580D01*
X693720Y45000D02*
X697052D01*
X695386D01*
Y54997D01*
X693720Y53331D01*
X702051D02*
X703717Y54997D01*
X707049D01*
X708715Y53331D01*
Y46666D01*
X707049Y45000D01*
X703717D01*
X702051Y46666D01*
Y53331D01*
X426220Y45000D02*
X429552D01*
X427886D01*
Y54997D01*
X426220Y53331D01*
X185000Y45000D02*
X188332D01*
X186666D01*
Y54997D01*
X185000Y53331D01*
D12*
X200500Y660359D02*
Y645124D01*
X210657D01*
X215735Y660359D02*
X220813D01*
X218274D01*
Y645124D01*
X215735D01*
X220813D01*
X228431D02*
Y660359D01*
X238588Y645124D01*
Y660359D01*
X253823D02*
X243666D01*
Y645124D01*
X253823D01*
X243666Y652741D02*
X248744D01*
X200500Y619641D02*
Y634877D01*
X208118D01*
X210657Y632337D01*
Y627259D01*
X208118Y624720D01*
X200500D01*
X205578D02*
X210657Y619641D01*
X225892Y634877D02*
X215735D01*
Y619641D01*
X225892D01*
X215735Y627259D02*
X220813D01*
X241127Y632337D02*
X238588Y634877D01*
X233509D01*
X230970Y632337D01*
Y629798D01*
X233509Y627259D01*
X238588D01*
X241127Y624720D01*
Y622181D01*
X238588Y619641D01*
X233509D01*
X230970Y622181D01*
X246205Y634877D02*
X251284D01*
X248744D01*
Y619641D01*
X246205D01*
X251284D01*
X269058Y632337D02*
X266519Y634877D01*
X261440D01*
X258901Y632337D01*
Y629798D01*
X261440Y627259D01*
X266519D01*
X269058Y624720D01*
Y622181D01*
X266519Y619641D01*
X261440D01*
X258901Y622181D01*
X274136Y634877D02*
X284293D01*
X279214D01*
Y619641D01*
X115657Y830078D02*
X113118Y832617D01*
X108039D01*
X105500Y830078D01*
Y827539D01*
X108039Y825000D01*
X113118D01*
X115657Y822461D01*
Y819922D01*
X113118Y817383D01*
X108039D01*
X105500Y819922D01*
X120735Y832617D02*
X130892D01*
X125813D01*
Y817383D01*
X143588Y832617D02*
X138509D01*
X135970Y830078D01*
Y819922D01*
X138509Y817383D01*
X143588D01*
X146127Y819922D01*
Y830078D01*
X143588Y832617D01*
X151205Y817383D02*
Y832617D01*
X158823D01*
X161362Y830078D01*
Y825000D01*
X158823Y822461D01*
X151205D01*
X310500Y731908D02*
Y716673D01*
X320657D01*
X333353D02*
X328274D01*
X325735Y719212D01*
Y724291D01*
X328274Y726830D01*
X333353D01*
X335892Y724291D01*
Y721752D01*
X325735D01*
X340970Y716673D02*
Y726830D01*
X343509D01*
X346049Y724291D01*
Y716673D01*
Y724291D01*
X348588Y726830D01*
X351127Y724291D01*
Y716673D01*
X358744Y726830D02*
X363823D01*
X366362Y724291D01*
Y716673D01*
X358744D01*
X356205Y719212D01*
X358744Y721752D01*
X366362D01*
X396832Y716673D02*
X394293Y719212D01*
X391754Y716673D01*
X389215D01*
X386675Y719212D01*
Y721752D01*
X389215Y724291D01*
X386675Y726830D01*
Y729369D01*
X389215Y731908D01*
X391754D01*
X394293Y729369D01*
Y726830D01*
X391754Y724291D01*
X394293Y721752D01*
Y719212D01*
X396832Y724291D02*
X394293Y721752D01*
X389215Y724291D02*
X391754D01*
X417146Y731908D02*
Y716673D01*
Y721752D01*
X427302Y731908D01*
X419685Y724291D01*
X427302Y716673D01*
X432381Y726830D02*
Y716673D01*
Y721752D01*
X434920Y724291D01*
X437459Y726830D01*
X439998D01*
X447616Y716673D02*
X452694D01*
X450155D01*
Y726830D01*
X447616D01*
X460312Y711595D02*
Y726830D01*
X467929D01*
X470468Y724291D01*
Y719212D01*
X467929Y716673D01*
X460312D01*
X478086Y726830D02*
X483164D01*
X485703Y724291D01*
Y716673D01*
X478086D01*
X475547Y719212D01*
X478086Y721752D01*
X485703D01*
X490782Y716673D02*
Y731908D01*
Y721752D02*
X498399Y726830D01*
X490782Y721752D02*
X498399Y716673D01*
X506017D02*
X513634D01*
X516174Y719212D01*
X513634Y721752D01*
X508556D01*
X506017Y724291D01*
X508556Y726830D01*
X516174D01*
X310500Y701348D02*
Y686113D01*
X318118D01*
X320657Y688652D01*
Y691191D01*
X318118Y693730D01*
X310500D01*
X318118D01*
X320657Y696270D01*
Y698809D01*
X318118Y701348D01*
X310500D01*
X325735D02*
Y686113D01*
X333353D01*
X335892Y688652D01*
Y698809D01*
X333353Y701348D01*
X325735D01*
X340970D02*
Y688652D01*
X343509Y686113D01*
X348588D01*
X351127Y688652D01*
Y701348D01*
X356205Y683574D02*
X366362D01*
X381597Y698809D02*
X379058Y701348D01*
X373979D01*
X371440Y698809D01*
Y696270D01*
X373979Y693730D01*
X379058D01*
X381597Y691191D01*
Y688652D01*
X379058Y686113D01*
X373979D01*
X371440Y688652D01*
X386675Y701348D02*
X396832D01*
X391754D01*
Y686113D01*
X401910D02*
Y696270D01*
X406989Y701348D01*
X412067Y696270D01*
Y686113D01*
Y693730D01*
X401910D01*
X417146Y686113D02*
Y701348D01*
X427302Y686113D01*
Y701348D01*
X432381D02*
Y686113D01*
X439998D01*
X442537Y688652D01*
Y698809D01*
X439998Y701348D01*
X432381D01*
X462851Y696270D02*
X467929Y686113D01*
X473007Y696270D01*
X478086Y686113D02*
X483164D01*
X480625D01*
Y701348D01*
X478086Y698809D01*
X315578Y658092D02*
X310500Y663170D01*
Y668248D01*
X315578Y673327D01*
X333353Y658092D02*
X323196D01*
X333353Y668248D01*
Y670788D01*
X330813Y673327D01*
X325735D01*
X323196Y670788D01*
X338431D02*
X340970Y673327D01*
X346049D01*
X348588Y670788D01*
Y660631D01*
X346049Y658092D01*
X340970D01*
X338431Y660631D01*
Y670788D01*
X363823Y658092D02*
X353666D01*
X363823Y668248D01*
Y670788D01*
X361284Y673327D01*
X356205D01*
X353666Y670788D01*
X368901D02*
X371440Y673327D01*
X376519D01*
X379058Y670788D01*
Y668248D01*
X376519Y665709D01*
X373979D01*
X376519D01*
X379058Y663170D01*
Y660631D01*
X376519Y658092D01*
X371440D01*
X368901Y660631D01*
X384136Y658092D02*
Y660631D01*
X386675D01*
Y658092D01*
X384136D01*
X396832Y670788D02*
X399371Y673327D01*
X404450D01*
X406989Y670788D01*
Y660631D01*
X404450Y658092D01*
X399371D01*
X396832Y660631D01*
Y670788D01*
X412067Y660631D02*
X414606Y658092D01*
X419685D01*
X422224Y660631D01*
Y670788D01*
X419685Y673327D01*
X414606D01*
X412067Y670788D01*
Y668248D01*
X414606Y665709D01*
X422224D01*
X427302Y658092D02*
Y660631D01*
X429841D01*
Y658092D01*
X427302D01*
X439998Y670788D02*
X442537Y673327D01*
X447616D01*
X450155Y670788D01*
Y660631D01*
X447616Y658092D01*
X442537D01*
X439998Y660631D01*
Y670788D01*
X465390Y658092D02*
X455233D01*
X465390Y668248D01*
Y670788D01*
X462851Y673327D01*
X457772D01*
X455233Y670788D01*
X470468Y658092D02*
X475547Y663170D01*
Y668248D01*
X470468Y673327D01*
X315657Y830078D02*
X313118Y832617D01*
X308039D01*
X305500Y830078D01*
Y827539D01*
X308039Y825000D01*
X313118D01*
X315657Y822461D01*
Y819922D01*
X313118Y817383D01*
X308039D01*
X305500Y819922D01*
X320735Y832617D02*
Y817383D01*
Y825000D01*
X330892D01*
Y832617D01*
Y817383D01*
X343588Y832617D02*
X338509D01*
X335970Y830078D01*
Y819922D01*
X338509Y817383D01*
X343588D01*
X346127Y819922D01*
Y830078D01*
X343588Y832617D01*
X351205Y817383D02*
Y832617D01*
X358823D01*
X361362Y830078D01*
Y825000D01*
X358823Y822461D01*
X351205D01*
X356284D02*
X361362Y817383D01*
X366440Y832617D02*
X376597D01*
X371519D01*
Y817383D01*
X803878Y831908D02*
Y816673D01*
X814035D01*
X819113D02*
Y826830D01*
X824191Y831908D01*
X829270Y826830D01*
Y816673D01*
Y824290D01*
X819113D01*
X834348Y831908D02*
X844505D01*
X839426D01*
Y816673D01*
X859740Y829369D02*
X857200Y831908D01*
X852122D01*
X849583Y829369D01*
Y819212D01*
X852122Y816673D01*
X857200D01*
X859740Y819212D01*
X864818Y831908D02*
Y816673D01*
Y824290D01*
X874975D01*
Y831908D01*
Y816673D01*
X865500Y504883D02*
Y520117D01*
X875657Y504883D01*
Y520117D01*
X890892Y517578D02*
X888353Y520117D01*
X883274D01*
X880735Y517578D01*
Y507422D01*
X883274Y504883D01*
X888353D01*
X890892Y507422D01*
X895970Y504883D02*
X901049D01*
X898509D01*
Y520117D01*
X895970Y517578D01*
X215657Y830078D02*
X213118Y832617D01*
X208039D01*
X205500Y830078D01*
Y827539D01*
X208039Y825000D01*
X213118D01*
X215657Y822461D01*
Y819922D01*
X213118Y817383D01*
X208039D01*
X205500Y819922D01*
X220735Y832617D02*
X230892D01*
X225813D01*
Y817383D01*
X235970D02*
Y827539D01*
X241049Y832617D01*
X246127Y827539D01*
Y817383D01*
Y825000D01*
X235970D01*
X251205Y817383D02*
Y832617D01*
X258823D01*
X261362Y830078D01*
Y825000D01*
X258823Y822461D01*
X251205D01*
X256284D02*
X261362Y817383D01*
X266440Y832617D02*
X276597D01*
X271519D01*
Y817383D01*
X685657Y980078D02*
X683118Y982618D01*
X678039D01*
X675500Y980078D01*
Y969922D01*
X678039Y967383D01*
X683118D01*
X685657Y969922D01*
X690735Y982618D02*
Y967383D01*
Y975000D01*
X700892D01*
Y982618D01*
Y967383D01*
X705970D02*
Y977539D01*
X711049Y982618D01*
X716127Y977539D01*
Y967383D01*
Y975000D01*
X705970D01*
X721205Y967383D02*
Y982618D01*
X731362Y967383D01*
Y982618D01*
X736440Y967383D02*
Y982618D01*
X746597Y967383D01*
Y982618D01*
X761832D02*
X751675D01*
Y967383D01*
X761832D01*
X751675Y975000D02*
X756754D01*
X766910Y982618D02*
Y967383D01*
X777067D01*
X807537D02*
X797381D01*
X807537Y977539D01*
Y980078D01*
X804998Y982618D01*
X799920D01*
X797381Y980078D01*
X614771Y829274D02*
X612232Y831813D01*
X607154D01*
X604614Y829274D01*
Y826735D01*
X607154Y824196D01*
X612232D01*
X614771Y821656D01*
Y819117D01*
X612232Y816578D01*
X607154D01*
X604614Y819117D01*
X619849Y831813D02*
X630006D01*
X624928D01*
Y816578D01*
X635084D02*
Y826735D01*
X640163Y831813D01*
X645241Y826735D01*
Y816578D01*
Y824196D01*
X635084D01*
X650320Y816578D02*
Y831813D01*
X657937D01*
X660476Y829274D01*
Y824196D01*
X657937Y821656D01*
X650320D01*
X655398D02*
X660476Y816578D01*
X665555Y831813D02*
X675711D01*
X670633D01*
Y816578D01*
X865500Y554883D02*
Y570117D01*
X875657Y554883D01*
Y570117D01*
X888353D02*
X883274D01*
X880735Y567578D01*
Y557422D01*
X883274Y554883D01*
X888353D01*
X890892Y557422D01*
Y567578D01*
X888353Y570117D01*
X895970Y554883D02*
X901049D01*
X898509D01*
Y570117D01*
X895970Y567578D01*
X514771Y829274D02*
X512232Y831813D01*
X507154D01*
X504614Y829274D01*
Y826735D01*
X507154Y824196D01*
X512232D01*
X514771Y821656D01*
Y819117D01*
X512232Y816578D01*
X507154D01*
X504614Y819117D01*
X519849Y831813D02*
X530006D01*
X524928D01*
Y816578D01*
X542702Y831813D02*
X537624D01*
X535084Y829274D01*
Y819117D01*
X537624Y816578D01*
X542702D01*
X545241Y819117D01*
Y829274D01*
X542702Y831813D01*
X550320Y816578D02*
Y831813D01*
X557937D01*
X560476Y829274D01*
Y824196D01*
X557937Y821656D01*
X550320D01*
X865500Y604883D02*
Y620117D01*
X875657Y604883D01*
Y620117D01*
X880735Y617578D02*
X883274Y620117D01*
X888353D01*
X890892Y617578D01*
Y607422D01*
X888353Y604883D01*
X883274D01*
X880735Y607422D01*
Y617578D01*
X906127Y604883D02*
X895970D01*
X906127Y615039D01*
Y617578D01*
X903588Y620117D01*
X898509D01*
X895970Y617578D01*
X601590Y659299D02*
Y644064D01*
X611747D01*
X616825Y659299D02*
X621903D01*
X619364D01*
Y644064D01*
X616825D01*
X621903D01*
X629521D02*
Y659299D01*
X639678Y644064D01*
Y659299D01*
X654913D02*
X644756D01*
Y644064D01*
X654913D01*
X644756Y651682D02*
X649834D01*
X601590Y618582D02*
Y633817D01*
X609208D01*
X611747Y631278D01*
Y626200D01*
X609208Y623660D01*
X601590D01*
X606668D02*
X611747Y618582D01*
X626982Y633817D02*
X616825D01*
Y618582D01*
X626982D01*
X616825Y626200D02*
X621903D01*
X642217Y631278D02*
X639678Y633817D01*
X634599D01*
X632060Y631278D01*
Y628739D01*
X634599Y626200D01*
X639678D01*
X642217Y623660D01*
Y621121D01*
X639678Y618582D01*
X634599D01*
X632060Y621121D01*
X647295Y633817D02*
X652374D01*
X649834D01*
Y618582D01*
X647295D01*
X652374D01*
X670148Y631278D02*
X667609Y633817D01*
X662530D01*
X659991Y631278D01*
Y628739D01*
X662530Y626200D01*
X667609D01*
X670148Y623660D01*
Y621121D01*
X667609Y618582D01*
X662530D01*
X659991Y621121D01*
X675226Y633817D02*
X685383D01*
X680305D01*
Y618582D01*
X404763Y832712D02*
Y817477D01*
X414920D01*
X419999D02*
Y827634D01*
X425077Y832712D01*
X430155Y827634D01*
Y817477D01*
Y825095D01*
X419999D01*
X435234Y832712D02*
X445390D01*
X440312D01*
Y817477D01*
X460625Y830173D02*
X458086Y832712D01*
X453008D01*
X450469Y830173D01*
Y820016D01*
X453008Y817477D01*
X458086D01*
X460625Y820016D01*
X465704Y832712D02*
Y817477D01*
Y825095D01*
X475860D01*
Y832712D01*
Y817477D01*
X865500Y654883D02*
Y670117D01*
X875657Y654883D01*
Y670117D01*
X890892Y667578D02*
X888353Y670117D01*
X883274D01*
X880735Y667578D01*
Y657422D01*
X883274Y654883D01*
X888353D01*
X890892Y657422D01*
X906127Y654883D02*
X895970D01*
X906127Y665039D01*
Y667578D01*
X903588Y670117D01*
X898509D01*
X895970Y667578D01*
X714771Y829274D02*
X712232Y831813D01*
X707153D01*
X704614Y829274D01*
Y826735D01*
X707153Y824196D01*
X712232D01*
X714771Y821656D01*
Y819117D01*
X712232Y816578D01*
X707153D01*
X704614Y819117D01*
X719849Y831813D02*
Y816578D01*
Y824196D01*
X730006D01*
Y831813D01*
Y816578D01*
X742702Y831813D02*
X737624D01*
X735085Y829274D01*
Y819117D01*
X737624Y816578D01*
X742702D01*
X745241Y819117D01*
Y829274D01*
X742702Y831813D01*
X750320Y816578D02*
Y831813D01*
X757937D01*
X760476Y829274D01*
Y824196D01*
X757937Y821656D01*
X750320D01*
X755398D02*
X760476Y816578D01*
X765555Y831813D02*
X775711D01*
X770633D01*
Y816578D01*
X288157Y980078D02*
X285618Y982618D01*
X280539D01*
X278000Y980078D01*
Y969922D01*
X280539Y967383D01*
X285618D01*
X288157Y969922D01*
X293235Y982618D02*
Y967383D01*
Y975000D01*
X303392D01*
Y982618D01*
Y967383D01*
X308470D02*
Y977539D01*
X313549Y982618D01*
X318627Y977539D01*
Y967383D01*
Y975000D01*
X308470D01*
X323705Y967383D02*
Y982618D01*
X333862Y967383D01*
Y982618D01*
X338940Y967383D02*
Y982618D01*
X349097Y967383D01*
Y982618D01*
X364332D02*
X354175D01*
Y967383D01*
X364332D01*
X354175Y975000D02*
X359254D01*
X369410Y982618D02*
Y967383D01*
X379567D01*
X399881D02*
X404959D01*
X402420D01*
Y982618D01*
X399881Y980078D01*
D13*
X299804Y764883D02*
Y780117D01*
X307422D01*
X309961Y777578D01*
Y772500D01*
X307422Y769961D01*
X299804D01*
X304883D02*
X309961Y764883D01*
X322657D02*
Y780117D01*
X315039Y772500D01*
X325196D01*
X702304Y764883D02*
Y780117D01*
X709922D01*
X712461Y777578D01*
Y772500D01*
X709922Y769961D01*
X702304D01*
X707383D02*
X712461Y764883D01*
X727696Y780117D02*
X717539D01*
Y772500D01*
X722617Y775039D01*
X725157D01*
X727696Y772500D01*
Y767422D01*
X725157Y764883D01*
X720078D01*
X717539Y767422D01*
X426694Y86583D02*
X436851Y71348D01*
Y86583D02*
X426694Y71348D01*
X441929D02*
Y86583D01*
X449547D01*
X452086Y84044D01*
Y78966D01*
X449547Y76426D01*
X441929D01*
X457164Y84044D02*
X459703Y86583D01*
X464782D01*
X467321Y84044D01*
Y81505D01*
X464782Y78966D01*
X462243D01*
X464782D01*
X467321Y76426D01*
Y73887D01*
X464782Y71348D01*
X459703D01*
X457164Y73887D01*
X185648Y86583D02*
X195805Y71348D01*
Y86583D02*
X185648Y71348D01*
X200883D02*
Y86583D01*
X208501D01*
X211040Y84044D01*
Y78966D01*
X208501Y76426D01*
X200883D01*
X226275Y71348D02*
X216118D01*
X226275Y81505D01*
Y84044D01*
X223736Y86583D01*
X218657D01*
X216118Y84044D01*
X926058Y237713D02*
X936215Y222478D01*
Y237713D02*
X926058Y222478D01*
X941293D02*
Y237713D01*
X948911D01*
X951450Y235174D01*
Y230096D01*
X948911Y227556D01*
X941293D01*
X956528Y222478D02*
X961607D01*
X959067D01*
Y237713D01*
X956528Y235174D01*
X887187Y350117D02*
Y339961D01*
X892265Y334883D01*
X897343Y339961D01*
Y350117D01*
X902422D02*
Y334883D01*
X910039D01*
X912578Y337422D01*
Y347578D01*
X910039Y350117D01*
X902422D01*
X925274Y334883D02*
Y350117D01*
X917657Y342500D01*
X927813D01*
X944687Y350117D02*
Y339961D01*
X949765Y334883D01*
X954843Y339961D01*
Y350117D01*
X959922D02*
Y334883D01*
X967539D01*
X970078Y337422D01*
Y347578D01*
X967539Y350117D01*
X959922D01*
X975157Y347578D02*
X977696Y350117D01*
X982774D01*
X985313Y347578D01*
Y345039D01*
X982774Y342500D01*
X980235D01*
X982774D01*
X985313Y339961D01*
Y337422D01*
X982774Y334883D01*
X977696D01*
X975157Y337422D01*
X109687Y982617D02*
Y972461D01*
X114765Y967383D01*
X119843Y972461D01*
Y982617D01*
X124922D02*
Y967383D01*
X132539D01*
X135078Y969922D01*
Y980078D01*
X132539Y982617D01*
X124922D01*
X150313Y967383D02*
X140157D01*
X150313Y977539D01*
Y980078D01*
X147774Y982617D01*
X142696D01*
X140157Y980078D01*
X517226Y982617D02*
Y972461D01*
X522304Y967383D01*
X527383Y972461D01*
Y982617D01*
X532461D02*
Y967383D01*
X540078D01*
X542618Y969922D01*
Y980078D01*
X540078Y982617D01*
X532461D01*
X547696Y967383D02*
X552774D01*
X550235D01*
Y982617D01*
X547696Y980078D01*
X814041Y949168D02*
X811501Y951707D01*
X806423D01*
X803884Y949168D01*
Y946629D01*
X806423Y944090D01*
X811501D01*
X814041Y941550D01*
Y939011D01*
X811501Y936472D01*
X806423D01*
X803884Y939011D01*
X819119Y951707D02*
Y936472D01*
X826737D01*
X829276Y939011D01*
Y941550D01*
X826737Y944090D01*
X819119D01*
X826737D01*
X829276Y946629D01*
Y949168D01*
X826737Y951707D01*
X819119D01*
X834354Y949168D02*
X836893Y951707D01*
X841972D01*
X844511Y949168D01*
Y946629D01*
X841972Y944090D01*
X844511Y941550D01*
Y939011D01*
X841972Y936472D01*
X836893D01*
X834354Y939011D01*
Y941550D01*
X836893Y944090D01*
X834354Y946629D01*
Y949168D01*
X836893Y944090D02*
X841972D01*
X313915Y949168D02*
X311376Y951707D01*
X306297D01*
X303758Y949168D01*
Y946629D01*
X306297Y944090D01*
X311376D01*
X313915Y941550D01*
Y939011D01*
X311376Y936472D01*
X306297D01*
X303758Y939011D01*
X318993Y951707D02*
Y936472D01*
X326611D01*
X329150Y939011D01*
Y941550D01*
X326611Y944090D01*
X318993D01*
X326611D01*
X329150Y946629D01*
Y949168D01*
X326611Y951707D01*
X318993D01*
X334228D02*
X344385D01*
Y949168D01*
X334228Y939011D01*
Y936472D01*
X213839Y949168D02*
X211299Y951707D01*
X206221D01*
X203682Y949168D01*
Y946629D01*
X206221Y944090D01*
X211299D01*
X213839Y941550D01*
Y939011D01*
X211299Y936472D01*
X206221D01*
X203682Y939011D01*
X218917Y951707D02*
Y936472D01*
X226535D01*
X229074Y939011D01*
Y941550D01*
X226535Y944090D01*
X218917D01*
X226535D01*
X229074Y946629D01*
Y949168D01*
X226535Y951707D01*
X218917D01*
X244309D02*
X239230Y949168D01*
X234152Y944090D01*
Y939011D01*
X236691Y936472D01*
X241770D01*
X244309Y939011D01*
Y941550D01*
X241770Y944090D01*
X234152D01*
X413991Y949168D02*
X411451Y951707D01*
X406373D01*
X403834Y949168D01*
Y946629D01*
X406373Y944090D01*
X411451D01*
X413991Y941550D01*
Y939011D01*
X411451Y936472D01*
X406373D01*
X403834Y939011D01*
X419069Y951707D02*
Y936472D01*
X426687D01*
X429226Y939011D01*
Y941550D01*
X426687Y944090D01*
X419069D01*
X426687D01*
X429226Y946629D01*
Y949168D01*
X426687Y951707D01*
X419069D01*
X444461D02*
X434304D01*
Y944090D01*
X439383Y946629D01*
X441922D01*
X444461Y944090D01*
Y939011D01*
X441922Y936472D01*
X436843D01*
X434304Y939011D01*
X613889Y949168D02*
X611349Y951707D01*
X606271D01*
X603732Y949168D01*
Y946629D01*
X606271Y944090D01*
X611349D01*
X613889Y941550D01*
Y939011D01*
X611349Y936472D01*
X606271D01*
X603732Y939011D01*
X618967Y951707D02*
Y936472D01*
X626585D01*
X629124Y939011D01*
Y941550D01*
X626585Y944090D01*
X618967D01*
X626585D01*
X629124Y946629D01*
Y949168D01*
X626585Y951707D01*
X618967D01*
X641820Y936472D02*
Y951707D01*
X634202Y944090D01*
X644359D01*
X514067Y949168D02*
X511527Y951707D01*
X506449D01*
X503910Y949168D01*
Y946629D01*
X506449Y944090D01*
X511527D01*
X514067Y941550D01*
Y939011D01*
X511527Y936472D01*
X506449D01*
X503910Y939011D01*
X519145Y951707D02*
Y936472D01*
X526763D01*
X529302Y939011D01*
Y941550D01*
X526763Y944090D01*
X519145D01*
X526763D01*
X529302Y946629D01*
Y949168D01*
X526763Y951707D01*
X519145D01*
X534380Y949168D02*
X536919Y951707D01*
X541998D01*
X544537Y949168D01*
Y946629D01*
X541998Y944090D01*
X539459D01*
X541998D01*
X544537Y941550D01*
Y939011D01*
X541998Y936472D01*
X536919D01*
X534380Y939011D01*
X713965Y949168D02*
X711425Y951707D01*
X706347D01*
X703808Y949168D01*
Y946629D01*
X706347Y944090D01*
X711425D01*
X713965Y941550D01*
Y939011D01*
X711425Y936472D01*
X706347D01*
X703808Y939011D01*
X719043Y951707D02*
Y936472D01*
X726661D01*
X729200Y939011D01*
Y941550D01*
X726661Y944090D01*
X719043D01*
X726661D01*
X729200Y946629D01*
Y949168D01*
X726661Y951707D01*
X719043D01*
X744435Y936472D02*
X734278D01*
X744435Y946629D01*
Y949168D01*
X741896Y951707D01*
X736817D01*
X734278Y949168D01*
X114017D02*
X111477Y951707D01*
X106399D01*
X103860Y949168D01*
Y946629D01*
X106399Y944090D01*
X111477D01*
X114017Y941550D01*
Y939011D01*
X111477Y936472D01*
X106399D01*
X103860Y939011D01*
X119095Y951707D02*
Y936472D01*
X126713D01*
X129252Y939011D01*
Y941550D01*
X126713Y944090D01*
X119095D01*
X126713D01*
X129252Y946629D01*
Y949168D01*
X126713Y951707D01*
X119095D01*
X134330Y936472D02*
X139409D01*
X136869D01*
Y951707D01*
X134330Y949168D01*
X902304Y467383D02*
Y482617D01*
X909922D01*
X912461Y480078D01*
Y475000D01*
X909922Y472461D01*
X902304D01*
X907383D02*
X912461Y467383D01*
X927696Y482617D02*
X922617Y480078D01*
X917539Y475000D01*
Y469922D01*
X920078Y467383D01*
X925157D01*
X927696Y469922D01*
Y472461D01*
X925157Y475000D01*
X917539D01*
X962304Y467383D02*
Y482617D01*
X969922D01*
X972461Y480078D01*
Y475000D01*
X969922Y472461D01*
X962304D01*
X967383D02*
X972461Y467383D01*
X977539Y480078D02*
X980078Y482617D01*
X985157D01*
X987696Y480078D01*
Y477539D01*
X985157Y475000D01*
X982617D01*
X985157D01*
X987696Y472461D01*
Y469922D01*
X985157Y467383D01*
X980078D01*
X977539Y469922D01*
X134804Y764883D02*
Y780117D01*
X142422D01*
X144961Y777578D01*
Y772500D01*
X142422Y769961D01*
X134804D01*
X139882D02*
X144961Y764883D01*
X160196D02*
X150039D01*
X160196Y775039D01*
Y777578D01*
X157657Y780117D01*
X152578D01*
X150039Y777578D01*
X529843Y764883D02*
Y780117D01*
X537461D01*
X540000Y777578D01*
Y772500D01*
X537461Y769961D01*
X529843D01*
X534922D02*
X540000Y764883D01*
X545078D02*
X550157D01*
X547618D01*
Y780117D01*
X545078Y777578D01*
X921486Y542513D02*
Y527278D01*
Y534896D01*
X931643D01*
Y542513D01*
Y527278D01*
X936721Y542513D02*
Y527278D01*
X946878D01*
X959574D02*
Y542513D01*
X951956Y534896D01*
X962113D01*
X921486Y592551D02*
Y577316D01*
Y584934D01*
X931643D01*
Y592551D01*
Y577316D01*
X936721Y592551D02*
Y577316D01*
X946878D01*
X951956Y590012D02*
X954495Y592551D01*
X959574D01*
X962113Y590012D01*
Y587473D01*
X959574Y584934D01*
X957035D01*
X959574D01*
X962113Y582394D01*
Y579855D01*
X959574Y577316D01*
X954495D01*
X951956Y579855D01*
X921486Y642589D02*
Y627354D01*
Y634972D01*
X931643D01*
Y642589D01*
Y627354D01*
X936721Y642589D02*
Y627354D01*
X946878D01*
X962113D02*
X951956D01*
X962113Y637511D01*
Y640050D01*
X959574Y642589D01*
X954495D01*
X951956Y640050D01*
X921486Y692627D02*
Y677392D01*
Y685010D01*
X931643D01*
Y692627D01*
Y677392D01*
X936721Y692627D02*
Y677392D01*
X946878D01*
X951956D02*
X957035D01*
X954495D01*
Y692627D01*
X951956Y690088D01*
M02*
