M48
;Layer_Color=9474304
;FILE_FORMAT=4:4
METRIC,TZ
;TYPE=PLATED
T1F00S00C0.8000
T2F00S00C1.0000
T4F00S00C3.2000
%
T01
X112500Y862500
Y887500
X172500
Y862500
X212500
Y887500
X272500
Y862500
X312500
Y887500
X372500
Y862500
X412500
Y887500
X472500
Y862500
X512500
Y887500
X572500
Y862500
X612500
Y887500
X672500
Y862500
X712500
Y887500
X772500
Y862500
X812500
Y887500
X872500
Y862500
Y912500
X812500
X772500
X712500
X672500
X612500
X572500
X512500
X472500
X412500
X372500
X312500
X272500
X212500
X172500
X112500
T02
X212500Y50000
X237900
X448720
X474120
X499520
X524920
X550320
X575720
X601120
X626520
X651920
X677320
X950000Y99600
Y125000
Y150400
Y175800
Y201200
X262500Y677500
X237500
X212500
X612500Y675000
X637500
X662500
T04
X50000Y50000
X950000
Y950000
X50000
M30
